<svg viewBox="0 0 900 480" xmlns="http://www.w3.org/2000/svg" font-family="'PingFang SC','Hiragino Sans GB','Microsoft YaHei','Noto Sans SC',sans-serif">
  <rect width="900" height="480" fill="#FAF6EF"/>
  <ellipse cx="450" cy="442" rx="380" ry="24" fill="#F1E7D6"/>

  <!-- 沙发 -->
  <g transform="translate(360,340)">
    <rect x="-190" y="-70" width="380" height="120" rx="26" fill="#8BB0A0"/>
    <rect x="-230" y="-90" width="70" height="150" rx="24" fill="#7BA292"/>
    <rect x="160" y="-90" width="70" height="150" rx="24" fill="#7BA292"/>
    <rect x="-180" y="-120" width="360" height="70" rx="22" fill="#7BA292"/>
    <rect x="-206" y="56" width="20" height="30" rx="8" fill="#C98F4E"/>
    <rect x="186" y="56" width="20" height="30" rx="8" fill="#C98F4E"/>
  </g>

  <!-- 小悠：窝沙发拿手机 -->
  <g transform="translate(320,352)">
    <rect x="-30" y="-96" width="60" height="88" rx="24" fill="#F7C64B"/>
    <rect x="-24" y="-12" width="20" height="44" rx="9" fill="#4C6FB0"/>
    <rect x="6" y="-12" width="20" height="44" rx="9" fill="#4C6FB0"/>
    <ellipse cx="-14" cy="36" rx="14" ry="6" fill="#3D3229"/>
    <ellipse cx="16" cy="36" rx="14" ry="6" fill="#3D3229"/>
    <path d="M 30 -76 L 62 -52" stroke="#F7C64B" stroke-width="13" stroke-linecap="round"/>
    <path d="M -30 -76 L -56 -50" stroke="#F7C64B" stroke-width="13" stroke-linecap="round"/>
    <circle cx="-60" cy="-46" r="7" fill="#FFCFA8"/>
    <circle cx="66" cy="-48" r="7" fill="#FFCFA8"/>
    <g transform="translate(10,-38) rotate(8)">
      <rect x="-26" y="-42" width="52" height="84" rx="10" fill="#3D3229"/>
      <rect x="-21" y="-36" width="42" height="72" rx="6" fill="#DFF0FB"/>
    </g>
    <circle cy="-130" r="34" fill="#FFCFA8"/>
    <path d="M -34 -130 a 34 34 0 0 1 68 0 l 0 8 q -8 -8 -16 -4 q -8 -9 -18 -3 q -10 -8 -18 2 q -8 -5 -16 5 z" fill="#2E2A28"/>
    <path d="M -16 -122 q 5 -4 9 0" stroke="#2E2A28" stroke-width="2.6" fill="none" stroke-linecap="round"/>
    <path d="M 7 -122 q 5 -4 9 0" stroke="#2E2A28" stroke-width="2.6" fill="none" stroke-linecap="round"/>
    <path d="M -8 -111 q 8 7 16 0" stroke="#2E2A28" stroke-width="2.4" fill="none" stroke-linecap="round"/>
    <ellipse cx="-22" cy="-113" rx="5" ry="3.4" fill="#F7A98C" opacity="0.55"/>
    <ellipse cx="22" cy="-113" rx="5" ry="3.4" fill="#F7A98C" opacity="0.55"/>
  </g>

  <!-- 大对话气泡："你好" -->
  <g transform="translate(560,150)">
    <ellipse rx="120" ry="70" fill="#FFFFFF" stroke="#E0D6C6" stroke-width="3"/>
    <path d="M -60 58 L -84 96 L -30 64 Z" fill="#FFFFFF" stroke="#E0D6C6" stroke-width="3"/>
    <path d="M -60 60 L -80 92 L -34 63 Z" fill="#FFFFFF"/>
    <text y="16" text-anchor="middle" font-size="44" font-weight="800" fill="#E8905A">Hi!</text>
  </g>

  <!-- 泡泡：从手机方向探身挥手 -->
  <g transform="translate(700,330)">
    <ellipse cx="0" cy="98" rx="40" ry="8" fill="#E4DACA" opacity="0.8"/>
    <ellipse rx="38" ry="34" fill="#FFFFFF" stroke="#E0D6C6" stroke-width="2.5"/>
    <ellipse cy="-2" rx="24" ry="17" fill="#CFE9F8"/>
    <path d="M -13 -5 q 4.5 -5 9 0" stroke="#2C6E9E" stroke-width="2.4" fill="none" stroke-linecap="round"/>
    <path d="M 4 -5 q 4.5 -5 9 0" stroke="#2C6E9E" stroke-width="2.4" fill="none" stroke-linecap="round"/>
    <path d="M -5 5 q 5 4 10 0" stroke="#2C6E9E" stroke-width="2.2" fill="none" stroke-linecap="round"/>
    <line y1="-34" y2="-48" stroke="#B9AFA0" stroke-width="3" stroke-linecap="round"/>
    <circle cy="-53" r="5.5" fill="#F59E0B"/>
    <circle cx="-46" cy="-26" r="8" fill="#FFFFFF" stroke="#E0D6C6" stroke-width="2.5"/>
    <circle cx="42" cy="8" r="8" fill="#FFFFFF" stroke="#E0D6C6" stroke-width="2.5"/>
  </g>
  <path d="M 160 140 l 5 -11 l 4 11 l 11 3 l -10 5 l -1 12 l -8 -9 l -12 2 l 7 -9 z" fill="#F7C64B" opacity="0.9"/>
</svg>
