<svg viewBox="0 0 900 460" xmlns="http://www.w3.org/2000/svg" font-family="'PingFang SC','Hiragino Sans GB','Microsoft YaHei','Noto Sans SC',sans-serif">
  <rect width="900" height="460" fill="#FAF6EF"/>
  <ellipse cx="450" cy="424" rx="380" ry="22" fill="#F1E7D6"/>

  <!-- 球桌 -->
  <rect x="270" y="300" width="360" height="22" rx="8" fill="#5FA968"/>
  <rect x="284" y="322" width="14" height="96" rx="6" fill="#C98F4E"/>
  <rect x="602" y="322" width="14" height="96" rx="6" fill="#C98F4E"/>
  <rect x="444" y="266" width="12" height="42" rx="4" fill="#8A7F72"/>
  <path d="M 444 270 h 12 M 444 282 h 12 M 444 294 h 12" stroke="#F7EFE2" stroke-width="2.5"/>

  <!-- 飞行弧线与消息球 -->
  <path d="M 330 250 Q 450 130 570 240" stroke="#C9BCA6" stroke-width="3.5" fill="none" stroke-dasharray="8 8"/>
  <g transform="translate(452,158)">
    <rect x="-34" y="-24" width="68" height="44" rx="16" fill="#FFFFFF" stroke="#F59E0B" stroke-width="3"/>
    <path d="M -8 20 L -14 32 L 4 20 Z" fill="#FFFFFF" stroke="#F59E0B" stroke-width="3" stroke-linejoin="round"/>
    <circle cx="-14" cy="-2" r="3.4" fill="#F59E0B"/>
    <circle cx="0" cy="-2" r="3.4" fill="#F59E0B"/>
    <circle cx="14" cy="-2" r="3.4" fill="#F59E0B"/>
  </g>

  <!-- 小悠：持拍 -->
  <g transform="translate(210,400)">
    <ellipse cx="-11" cy="0" rx="13" ry="6" fill="#3D3229"/>
    <ellipse cx="11" cy="0" rx="13" ry="6" fill="#3D3229"/>
    <rect x="-18" y="-62" width="15" height="60" rx="7" fill="#4C6FB0"/>
    <rect x="3" y="-62" width="15" height="60" rx="7" fill="#4C6FB0"/>
    <rect x="-28" y="-138" width="56" height="84" rx="24" fill="#F7C64B"/>
    <rect x="-42" y="-130" width="14" height="54" rx="7" fill="#F7C64B"/>
    <circle cx="-35" cy="-72" r="7" fill="#FFCFA8"/>
    <path d="M 28 -120 L 72 -148" stroke="#F7C64B" stroke-width="14" stroke-linecap="round"/>
    <circle cx="77" cy="-151" r="7.5" fill="#FFCFA8"/>
    <g transform="translate(94,-166) rotate(24)">
      <ellipse rx="18" ry="22" fill="#E8734A"/>
      <rect x="-5" y="18" width="10" height="20" rx="4" fill="#C98F4E"/>
    </g>
    <circle cy="-172" r="34" fill="#FFCFA8"/>
    <path d="M -34 -172 a 34 34 0 0 1 68 0 l 0 8 q -8 -8 -16 -4 q -8 -9 -18 -3 q -10 -8 -18 2 q -8 -5 -16 5 z" fill="#2E2A28"/>
    <path d="M -16 -164 q 5 -4 9 0" stroke="#2E2A28" stroke-width="2.6" fill="none" stroke-linecap="round"/>
    <path d="M 7 -164 q 5 -4 9 0" stroke="#2E2A28" stroke-width="2.6" fill="none" stroke-linecap="round"/>
    <path d="M -9 -153 q 9 8 18 0" stroke="#2E2A28" stroke-width="2.4" fill="none" stroke-linecap="round"/>
    <ellipse cx="-22" cy="-155" rx="5" ry="3.4" fill="#F7A98C" opacity="0.55"/>
    <ellipse cx="22" cy="-155" rx="5" ry="3.4" fill="#F7A98C" opacity="0.55"/>
  </g>

  <!-- 泡泡：持拍迎球 -->
  <g transform="translate(690,320)">
    <ellipse cx="0" cy="102" rx="42" ry="8" fill="#E4DACA" opacity="0.8"/>
    <ellipse rx="38" ry="34" fill="#FFFFFF" stroke="#E0D6C6" stroke-width="2.5"/>
    <ellipse cy="-2" rx="24" ry="17" fill="#CFE9F8"/>
    <path d="M -13 -5 q 4.5 -5 9 0" stroke="#2C6E9E" stroke-width="2.4" fill="none" stroke-linecap="round"/>
    <path d="M 4 -5 q 4.5 -5 9 0" stroke="#2C6E9E" stroke-width="2.4" fill="none" stroke-linecap="round"/>
    <path d="M -5 5 q 5 4 10 0" stroke="#2C6E9E" stroke-width="2.2" fill="none" stroke-linecap="round"/>
    <line y1="-34" y2="-48" stroke="#B9AFA0" stroke-width="3" stroke-linecap="round"/>
    <circle cy="-53" r="5.5" fill="#F59E0B"/>
    <circle cx="42" cy="2" r="8" fill="#FFFFFF" stroke="#E0D6C6" stroke-width="2.5"/>
    <g transform="translate(-58,-30) rotate(-26)">
      <ellipse rx="16" ry="20" fill="#4A90D9"/>
      <rect x="-4" y="16" width="8" height="18" rx="4" fill="#C98F4E"/>
    </g>
  </g>
</svg>
