<svg viewBox="0 0 900 500" xmlns="http://www.w3.org/2000/svg" font-family="'PingFang SC','Hiragino Sans GB','Microsoft YaHei','Noto Sans SC',sans-serif">
  <rect width="900" height="500" fill="#FAF6EF"/>
  <ellipse cx="450" cy="460" rx="380" ry="24" fill="#F1E7D6"/>

  <!-- 铺面 -->
  <rect x="180" y="120" width="540" height="320" rx="14" fill="#F7EFE2" stroke="#E0D6C6" stroke-width="4"/>
  <path d="M 160 130 L 450 60 L 740 130 L 740 156 L 160 156 Z" fill="#E8734A"/>
  <path d="M 160 156 h 580" stroke="#C95F3A" stroke-width="6"/>
  <rect x="380" y="86" width="140" height="52" rx="10" fill="#FFF7E6" stroke="#D9A05B" stroke-width="3.5"/>
  <path d="M 450 96 l 6 -13 l 5 13 l 14 3 l -11 8 l -1 14 l -10 -9 l -13 3 l 7 -12 z" fill="#F59E0B"/>

  <!-- 灯笼 -->
  <g transform="translate(230,196)">
    <line y1="-40" y2="-18" stroke="#8A7F72" stroke-width="3"/>
    <ellipse rx="22" ry="26" fill="#E8734A"/>
    <path d="M -22 0 h 44 M -18 -12 h 36 M -18 12 h 36" stroke="#C95F3A" stroke-width="2.5"/>
    <rect x="-8" y="-32" width="16" height="8" rx="3 " fill="#F7C64B"/>
    <rect x="-8" y="24" width="16" height="8" rx="3" fill="#F7C64B"/>
    <path d="M 0 32 v 14 M -6 32 v 10 M 6 32 v 10" stroke="#F7C64B" stroke-width="3" stroke-linecap="round"/>
  </g>

  <!-- 柜台 -->
  <rect x="300" y="330" width="380" height="26" rx="10" fill="#C98F4E"/>
  <rect x="316" y="356" width="348" height="84" rx="10" fill="#D9A05B"/>

  <!-- 柜台物件：地图/锅铲/礼盒/信纸 -->
  <g transform="translate(352,308) rotate(-6)">
    <rect x="-26" y="-20" width="52" height="40" rx="5" fill="#EAF3FB" stroke="#4A90D9" stroke-width="2.5"/>
    <path d="M -12 -20 v 40 M 12 -20 v 40" stroke="#A9CBE8" stroke-width="2"/>
    <path d="M -20 6 q 12 -14 24 -2 q 8 6 14 -4" stroke="#E8734A" stroke-width="2.5" fill="none" stroke-dasharray="4 3"/>
  </g>
  <g transform="translate(438,300) rotate(18)">
    <rect x="-5" y="-6" width="10" height="42" rx="4" fill="#8A7F72"/>
    <path d="M -14 -26 a 14 16 0 0 1 28 0 l -3 20 h -22 z" fill="#B9AFA0"/>
    <path d="M -7 -24 v 12 M 0 -26 v 14 M 7 -24 v 12" stroke="#F7EFE2" stroke-width="2.4" stroke-linecap="round"/>
  </g>
  <g transform="translate(524,306)">
    <rect x="-24" y="-16" width="48" height="38" rx="5" fill="#8B6FC0"/>
    <rect x="-24" y="-16" width="48" height="12" rx="5" fill="#7A5FB0"/>
    <rect x="-5" y="-16" width="10" height="38" fill="#F7C64B"/>
    <path d="M 0 -16 q -12 -14 -16 -2 q 12 6 16 2 q 12 -14 16 -2 q -12 6 -16 2" fill="#F7C64B"/>
  </g>
  <g transform="translate(608,310) rotate(-4)">
    <rect x="-24" y="-18" width="48" height="40" rx="4" fill="#FFFFFF" stroke="#E0D6C6" stroke-width="2.5"/>
    <path d="M -14 -6 h 28 M -14 4 h 22 M -14 14 h 26" stroke="#DCD2C0" stroke-width="3" stroke-linecap="round"/>
  </g>

  <!-- 泡泡：围裙掌柜 -->
  <g transform="translate(490,246)">
    <ellipse rx="38" ry="34" fill="#FFFFFF" stroke="#E0D6C6" stroke-width="2.5"/>
    <path d="M -26 10 a 30 22 0 0 0 52 0 l 0 22 h -52 z" fill="#5FA968"/>
    <path d="M -14 14 h 28" stroke="#3E7D4B" stroke-width="2.5"/>
    <ellipse cy="-6" rx="24" ry="16" fill="#CFE9F8"/>
    <path d="M -13 -9 q 4.5 -5 9 0" stroke="#2C6E9E" stroke-width="2.4" fill="none" stroke-linecap="round"/>
    <path d="M 4 -9 q 4.5 -5 9 0" stroke="#2C6E9E" stroke-width="2.4" fill="none" stroke-linecap="round"/>
    <path d="M -5 1 q 5 4 10 0" stroke="#2C6E9E" stroke-width="2.2" fill="none" stroke-linecap="round"/>
    <line y1="-34" y2="-46" stroke="#B9AFA0" stroke-width="3" stroke-linecap="round"/>
    <circle cy="-51" r="5.5" fill="#F59E0B"/>
    <circle cx="-44" cy="16" r="8" fill="#FFFFFF" stroke="#E0D6C6" stroke-width="2.5"/>
    <circle cx="44" cy="16" r="8" fill="#FFFFFF" stroke="#E0D6C6" stroke-width="2.5"/>
  </g>

  <!-- 小悠：推门进来 -->
  <g transform="translate(170,436)">
    <ellipse cx="-11" cy="0" rx="13" ry="6" fill="#3D3229"/>
    <ellipse cx="11" cy="0" rx="13" ry="6" fill="#3D3229"/>
    <rect x="-18" y="-62" width="15" height="60" rx="7" fill="#4C6FB0"/>
    <rect x="3" y="-62" width="15" height="60" rx="7" fill="#4C6FB0"/>
    <rect x="-28" y="-138" width="56" height="84" rx="24" fill="#F7C64B"/>
    <rect x="-42" y="-130" width="14" height="54" rx="7" fill="#F7C64B"/>
    <circle cx="-35" cy="-72" r="7" fill="#FFCFA8"/>
    <path d="M 28 -120 L 64 -146" stroke="#F7C64B" stroke-width="14" stroke-linecap="round"/>
    <circle cx="69" cy="-149" r="7.5" fill="#FFCFA8"/>
    <circle cy="-172" r="34" fill="#FFCFA8"/>
    <path d="M -34 -172 a 34 34 0 0 1 68 0 l 0 8 q -8 -8 -16 -4 q -8 -9 -18 -3 q -10 -8 -18 2 q -8 -5 -16 5 z" fill="#2E2A28"/>
    <path d="M -16 -164 q 5 -4 9 0" stroke="#2E2A28" stroke-width="2.6" fill="none" stroke-linecap="round"/>
    <path d="M 7 -164 q 5 -4 9 0" stroke="#2E2A28" stroke-width="2.6" fill="none" stroke-linecap="round"/>
    <path d="M -9 -153 q 9 8 18 0" stroke="#2E2A28" stroke-width="2.4" fill="none" stroke-linecap="round"/>
    <ellipse cx="-22" cy="-155" rx="5" ry="3.4" fill="#F7A98C" opacity="0.55"/>
    <ellipse cx="22" cy="-155" rx="5" ry="3.4" fill="#F7A98C" opacity="0.55"/>
  </g>
</svg>
