<svg viewBox="0 0 900 480" xmlns="http://www.w3.org/2000/svg" font-family="'PingFang SC','Hiragino Sans GB','Microsoft YaHei','Noto Sans SC',sans-serif">
  <rect width="900" height="480" fill="#FAF6EF"/>
  <ellipse cx="450" cy="440" rx="380" ry="24" fill="#F1E7D6"/>

  <!-- 积木塔 -->
  <g transform="translate(450,0)">
    <rect x="-110" y="352" width="220" height="76" rx="12" fill="#F59E0B"/>
    <circle cx="-60" cy="376" r="9" fill="#FDD98A"/><circle cx="0" cy="376" r="9" fill="#FDD98A"/><circle cx="60" cy="376" r="9" fill="#FDD98A"/>
    <rect x="-96" y="276" width="192" height="72" rx="12" fill="#4A90D9"/>
    <circle cx="-48" cy="298" r="9" fill="#A9CBE8"/><circle cx="10" cy="298" r="9" fill="#A9CBE8"/><circle cx="58" cy="298" r="9" fill="#A9CBE8"/>
    <rect x="-82" y="204" width="164" height="68" rx="12" fill="#5FA968"/>
    <circle cx="-38" cy="226" r="8" fill="#BCDCC2"/><circle cx="30" cy="226" r="8" fill="#BCDCC2"/>
    <g transform="translate(6,150) rotate(6)">
      <rect x="-72" y="-20" width="144" height="62" rx="12" fill="#8B6FC0"/>
      <circle cx="-32" cy="0" r="8" fill="#CDBDE8"/><circle cx="28" cy="0" r="8" fill="#CDBDE8"/>
    </g>
  </g>

  <!-- 小悠：踮脚摆最上面一块 -->
  <g transform="translate(268,420)">
    <ellipse cx="-11" cy="0" rx="13" ry="6" fill="#3D3229"/>
    <ellipse cx="11" cy="0" rx="13" ry="6" fill="#3D3229"/>
    <rect x="-18" y="-62" width="15" height="60" rx="7" fill="#4C6FB0"/>
    <rect x="3" y="-62" width="15" height="60" rx="7" fill="#4C6FB0"/>
    <rect x="-28" y="-138" width="56" height="84" rx="24" fill="#F7C64B"/>
    <path d="M 28 -128 L 82 -172" stroke="#F7C64B" stroke-width="14" stroke-linecap="round"/>
    <circle cx="88" cy="-176" r="7.5" fill="#FFCFA8"/>
    <rect x="-42" y="-130" width="14" height="54" rx="7" fill="#F7C64B"/>
    <circle cx="-35" cy="-72" r="7" fill="#FFCFA8"/>
    <circle cy="-172" r="34" fill="#FFCFA8"/>
    <path d="M -34 -172 a 34 34 0 0 1 68 0 l 0 8 q -8 -8 -16 -4 q -8 -9 -18 -3 q -10 -8 -18 2 q -8 -5 -16 5 z" fill="#2E2A28"/>
    <circle cx="-12" cy="-163" r="3" fill="#2E2A28"/>
    <circle cx="12" cy="-163" r="3" fill="#2E2A28"/>
    <path d="M -8 -153 q 8 7 16 0" stroke="#2E2A28" stroke-width="2.4" fill="none" stroke-linecap="round"/>
    <ellipse cx="-22" cy="-155" rx="5" ry="3.4" fill="#F7A98C" opacity="0.55"/>
    <ellipse cx="22" cy="-155" rx="5" ry="3.4" fill="#F7A98C" opacity="0.55"/>
  </g>

  <!-- 泡泡：托举帮忙 -->
  <g transform="translate(640,300)">
    <ellipse cx="0" cy="128" rx="42" ry="8" fill="#E4DACA" opacity="0.8"/>
    <ellipse rx="38" ry="34" fill="#FFFFFF" stroke="#E0D6C6" stroke-width="2.5"/>
    <ellipse cy="-2" rx="24" ry="17" fill="#CFE9F8"/>
    <path d="M -13 -5 q 4.5 -5 9 0" stroke="#2C6E9E" stroke-width="2.4" fill="none" stroke-linecap="round"/>
    <path d="M 4 -5 q 4.5 -5 9 0" stroke="#2C6E9E" stroke-width="2.4" fill="none" stroke-linecap="round"/>
    <path d="M -5 5 q 5 4 10 0" stroke="#2C6E9E" stroke-width="2.2" fill="none" stroke-linecap="round"/>
    <line y1="-34" y2="-48" stroke="#B9AFA0" stroke-width="3" stroke-linecap="round"/>
    <circle cy="-53" r="5.5" fill="#F59E0B"/>
    <circle cx="-40" cy="-34" r="8" fill="#FFFFFF" stroke="#E0D6C6" stroke-width="2.5"/>
    <circle cx="40" cy="-34" r="8" fill="#FFFFFF" stroke="#E0D6C6" stroke-width="2.5"/>
  </g>
  <path d="M 700 120 l 5 -11 l 4 11 l 11 3 l -10 5 l -1 12 l -8 -9 l -12 2 l 7 -9 z" fill="#F7C64B" opacity="0.9"/>
</svg>
