<svg viewBox="0 0 900 460" xmlns="http://www.w3.org/2000/svg" font-family="'PingFang SC','Hiragino Sans GB','Microsoft YaHei','Noto Sans SC',sans-serif">
  <rect width="900" height="460" fill="#FAF6EF"/>
  <ellipse cx="450" cy="424" rx="380" ry="22" fill="#F1E7D6"/>

  <!-- 传送带 -->
  <rect x="240" y="300" width="430" height="26" rx="13" fill="#8A7F72"/>
  <circle cx="270" cy="313" r="9" fill="#DCD2C0"/><circle cx="350" cy="313" r="9" fill="#DCD2C0"/><circle cx="430" cy="313" r="9" fill="#DCD2C0"/><circle cx="510" cy="313" r="9" fill="#DCD2C0"/><circle cx="590" cy="313" r="9" fill="#DCD2C0"/><circle cx="648" cy="313" r="9" fill="#DCD2C0"/>
  <rect x="266" y="326" width="14" height="72" rx="6" fill="#B9AFA0"/>
  <rect x="630" y="326" width="14" height="72" rx="6" fill="#B9AFA0"/>

  <!-- 传送带上的文件 -->
  <g transform="translate(320,282) rotate(-3)"><rect x="-26" y="-18" width="52" height="36" rx="4" fill="#FFFFFF" stroke="#E0D6C6" stroke-width="2.5"/><path d="M -16 -6 h 32 M -16 4 h 24" stroke="#DCD2C0" stroke-width="3" stroke-linecap="round"/></g>
  <g transform="translate(430,280) rotate(2)"><rect x="-26" y="-18" width="52" height="36" rx="4" fill="#FFFFFF" stroke="#E0D6C6" stroke-width="2.5"/><path d="M -16 -6 h 32 M -16 4 h 24" stroke="#DCD2C0" stroke-width="3" stroke-linecap="round"/></g>
  <g transform="translate(540,282)"><rect x="-26" y="-18" width="52" height="36" rx="4" fill="#FFFFFF" stroke="#E0D6C6" stroke-width="2.5"/><path d="M -16 -6 h 32 M -16 4 h 24" stroke="#DCD2C0" stroke-width="3" stroke-linecap="round"/><circle cx="12" cy="8" r="9" fill="#5FA968"/><path d="M 8 8 l 3 4 l 6 -8" stroke="#FFFFFF" stroke-width="2" fill="none" stroke-linecap="round"/></g>

  <!-- 完成的一摞 -->
  <g transform="translate(760,376)">
    <rect x="-42" y="-14" width="84" height="14" rx="4" fill="#FFFFFF" stroke="#E0D6C6" stroke-width="2.5"/>
    <rect x="-38" y="-28" width="84" height="14" rx="4" fill="#FFFFFF" stroke="#E0D6C6" stroke-width="2.5"/>
    <rect x="-44" y="-42" width="84" height="14" rx="4" fill="#FFFFFF" stroke="#E0D6C6" stroke-width="2.5"/>
    <circle cx="30" cy="-52" r="12" fill="#5FA968"/>
    <path d="M 24 -52 l 4 5 l 8 -10" stroke="#FFFFFF" stroke-width="2.6" fill="none" stroke-linecap="round"/>
  </g>

  <!-- 泡泡：工装帽盖章 -->
  <g transform="translate(650,222)">
    <ellipse rx="38" ry="34" fill="#FFFFFF" stroke="#E0D6C6" stroke-width="2.5"/>
    <ellipse cy="-2" rx="24" ry="17" fill="#CFE9F8"/>
    <path d="M -13 -5 q 4.5 -5 9 0" stroke="#2C6E9E" stroke-width="2.4" fill="none" stroke-linecap="round"/>
    <path d="M 4 -5 q 4.5 -5 9 0" stroke="#2C6E9E" stroke-width="2.4" fill="none" stroke-linecap="round"/>
    <path d="M -5 5 q 5 4 10 0" stroke="#2C6E9E" stroke-width="2.2" fill="none" stroke-linecap="round"/>
    <path d="M -30 -24 a 30 18 0 0 1 60 0 l 6 6 h -72 z" fill="#F59E0B"/>
    <circle cx="-46" cy="10" r="8" fill="#FFFFFF" stroke="#E0D6C6" stroke-width="2.5"/>
    <g transform="translate(44,28)">
      <circle cx="0" cy="0" r="8" fill="#FFFFFF" stroke="#E0D6C6" stroke-width="2.5"/>
      <rect x="-7" y="6" width="14" height="20" rx="5" fill="#E8734A"/>
      <rect x="-12" y="26" width="24" height="9" rx="4" fill="#C95F3A"/>
    </g>
  </g>

  <!-- 小悠：靠椅喝茶 -->
  <g transform="translate(150,360)">
    <rect x="-56" y="-96" width="18" height="140" rx="8" fill="#C98F4E"/>
    <rect x="-56" y="36" width="96" height="14" rx="7" fill="#C98F4E"/>
    <rect x="-30" y="-96" width="64" height="86" rx="20" fill="#F7C64B" transform="rotate(8)"/>
    <rect x="-4" y="-12" width="20" height="42" rx="9" fill="#4C6FB0" transform="rotate(4)"/>
    <rect x="20" y="-12" width="20" height="42" rx="9" fill="#4C6FB0" transform="rotate(-2)"/>
    <ellipse cx="16" cy="32" rx="14" ry="6" fill="#3D3229"/>
    <ellipse cx="42" cy="30" rx="14" ry="6" fill="#3D3229"/>
    <path d="M 30 -66 L 62 -50" stroke="#F7C64B" stroke-width="13" stroke-linecap="round"/>
    <circle cx="67" cy="-48" r="7" fill="#FFCFA8"/>
    <g transform="translate(80,-56)">
      <path d="M -12 -8 h 24 v 10 a 12 10 0 0 1 -24 0 z" fill="#E8734A"/>
      <path d="M 12 -5 q 9 1 8 9 q -1 6 -9 5" stroke="#E8734A" stroke-width="3.5" fill="none"/>
      <path d="M -5 -14 q 2 -5 0 -9 M 4 -14 q 2 -5 0 -9" stroke="#C9BCA6" stroke-width="2.4" fill="none" stroke-linecap="round"/>
    </g>
    <g transform="rotate(6)">
      <circle cx="4" cy="-124" r="34" fill="#FFCFA8"/>
      <path d="M -30 -124 a 34 34 0 0 1 68 0 l 0 8 q -8 -8 -16 -4 q -8 -9 -18 -3 q -10 -8 -18 2 q -8 -5 -16 5 z" fill="#2E2A28"/>
      <path d="M -12 -116 q 5 -4 9 0" stroke="#2E2A28" stroke-width="2.6" fill="none" stroke-linecap="round"/>
      <path d="M 11 -116 q 5 -4 9 0" stroke="#2E2A28" stroke-width="2.6" fill="none" stroke-linecap="round"/>
      <path d="M -4 -105 q 8 7 16 0" stroke="#2E2A28" stroke-width="2.4" fill="none" stroke-linecap="round"/>
      <ellipse cx="-16" cy="-107" rx="5" ry="3.4" fill="#F7A98C" opacity="0.55"/>
      <ellipse cx="26" cy="-107" rx="5" ry="3.4" fill="#F7A98C" opacity="0.55"/>
    </g>
  </g>
</svg>
