<svg viewBox="0 0 900 480" xmlns="http://www.w3.org/2000/svg" font-family="'PingFang SC','Hiragino Sans GB','Microsoft YaHei','Noto Sans SC',sans-serif">
  <rect width="900" height="480" fill="#FAF6EF"/>
  <ellipse cx="450" cy="444" rx="380" ry="24" fill="#F1E7D6"/>

  <!-- 玄关：门框与挂钩 -->
  <rect x="96" y="90" width="190" height="350" rx="10" fill="#EAE0CE"/>
  <rect x="112" y="106" width="158" height="318" rx="8" fill="#F7EFE2"/>
  <circle cx="150" cy="170" r="6" fill="#C98F4E"/>
  <path d="M 150 176 q 0 14 12 16" stroke="#C98F4E" stroke-width="4" fill="none" stroke-linecap="round"/>
  <circle cx="220" cy="170" r="6" fill="#C98F4E"/>
  <g transform="translate(220,176)">
    <path d="M 0 0 q 0 10 8 12" stroke="#C98F4E" stroke-width="4" fill="none" stroke-linecap="round"/>
    <rect x="-4" y="12" width="34" height="44" rx="8" fill="#4A90D9"/>
    <path d="M 2 12 q 12 -14 22 0" stroke="#2C6E9E" stroke-width="4" fill="none"/>
  </g>

  <!-- 小悠：背包＋清单打勾 -->
  <g transform="translate(430,414)">
    <ellipse cx="-11" cy="0" rx="13" ry="6" fill="#3D3229"/>
    <ellipse cx="11" cy="0" rx="13" ry="6" fill="#3D3229"/>
    <rect x="-18" y="-62" width="15" height="60" rx="7" fill="#4C6FB0"/>
    <rect x="3" y="-62" width="15" height="60" rx="7" fill="#4C6FB0"/>
    <rect x="-28" y="-138" width="56" height="84" rx="24" fill="#F7C64B"/>
    <rect x="-52" y="-128" width="26" height="58" rx="12" fill="#E8734A"/>
    <rect x="-48" y="-112" width="18" height="20" rx="6" fill="#C95F3A"/>
    <path d="M 28 -118 L 60 -100" stroke="#F7C64B" stroke-width="13" stroke-linecap="round"/>
    <circle cx="65" cy="-97" r="7" fill="#FFCFA8"/>
    <path d="M 28 -84 L 56 -70" stroke="#F7C64B" stroke-width="13" stroke-linecap="round"/>
    <circle cx="61" cy="-67" r="7" fill="#FFCFA8"/>
    <g transform="translate(84,-92) rotate(6)">
      <rect x="-24" y="-32" width="48" height="64" rx="6" fill="#FFFFFF" stroke="#E0D6C6" stroke-width="2.5"/>
      <circle cx="-13" cy="-16" r="4.5" fill="#5FA968"/><path d="M -16 -16 l 2 3 l 5 -6" stroke="#FFFFFF" stroke-width="1.6" fill="none" stroke-linecap="round"/>
      <line x1="-4" y1="-16" x2="16" y2="-16" stroke="#DCD2C0" stroke-width="3.4" stroke-linecap="round"/>
      <circle cx="-13" cy="2" r="4.5" fill="#5FA968"/><path d="M -16 2 l 2 3 l 5 -6" stroke="#FFFFFF" stroke-width="1.6" fill="none" stroke-linecap="round"/>
      <line x1="-4" y1="2" x2="16" y2="2" stroke="#DCD2C0" stroke-width="3.4" stroke-linecap="round"/>
      <circle cx="-13" cy="20" r="4.5" fill="none" stroke="#F59E0B" stroke-width="2"/>
      <line x1="-4" y1="20" x2="12" y2="20" stroke="#DCD2C0" stroke-width="3.4" stroke-linecap="round"/>
    </g>
    <circle cy="-172" r="34" fill="#FFCFA8"/>
    <path d="M -34 -172 a 34 34 0 0 1 68 0 l 0 8 q -8 -8 -16 -4 q -8 -9 -18 -3 q -10 -8 -18 2 q -8 -5 -16 5 z" fill="#2E2A28"/>
    <path d="M -16 -164 q 5 -4 9 0" stroke="#2E2A28" stroke-width="2.6" fill="none" stroke-linecap="round"/>
    <path d="M 7 -164 q 5 -4 9 0" stroke="#2E2A28" stroke-width="2.6" fill="none" stroke-linecap="round"/>
    <path d="M -9 -153 q 9 8 18 0" stroke="#2E2A28" stroke-width="2.4" fill="none" stroke-linecap="round"/>
    <ellipse cx="-22" cy="-155" rx="5" ry="3.4" fill="#F7A98C" opacity="0.55"/>
    <ellipse cx="22" cy="-155" rx="5" ry="3.4" fill="#F7A98C" opacity="0.55"/>
  </g>

  <!-- 泡泡：举对勾盾牌 -->
  <g transform="translate(680,320)">
    <ellipse cx="0" cy="104" rx="42" ry="8" fill="#E4DACA" opacity="0.8"/>
    <ellipse rx="38" ry="34" fill="#FFFFFF" stroke="#E0D6C6" stroke-width="2.5"/>
    <ellipse cy="-2" rx="24" ry="17" fill="#CFE9F8"/>
    <path d="M -13 -5 q 4.5 -5 9 0" stroke="#2C6E9E" stroke-width="2.4" fill="none" stroke-linecap="round"/>
    <path d="M 4 -5 q 4.5 -5 9 0" stroke="#2C6E9E" stroke-width="2.4" fill="none" stroke-linecap="round"/>
    <path d="M -5 5 q 5 4 10 0" stroke="#2C6E9E" stroke-width="2.2" fill="none" stroke-linecap="round"/>
    <line y1="-34" y2="-48" stroke="#B9AFA0" stroke-width="3" stroke-linecap="round"/>
    <circle cy="-53" r="5.5" fill="#F59E0B"/>
    <circle cx="44" cy="8" r="8" fill="#FFFFFF" stroke="#E0D6C6" stroke-width="2.5"/>
    <g transform="translate(-58,-8)">
      <circle cx="14" cy="-14" r="8" fill="#FFFFFF" stroke="#E0D6C6" stroke-width="2.5"/>
      <path d="M 0 -24 q -26 0 -26 6 q 0 34 26 46 q 26 -12 26 -46 q 0 -6 -26 -6 z" fill="#5FA968" stroke="#3E7D4B" stroke-width="2.5"/>
      <path d="M -11 2 l 8 9 l 15 -18" stroke="#FFFFFF" stroke-width="4.5" fill="none" stroke-linecap="round" stroke-linejoin="round"/>
    </g>
  </g>

  <!-- 挂锁 -->
  <g transform="translate(580,414)">
    <rect x="-24" y="-14" width="48" height="38" rx="8" fill="#F59E0B"/>
    <path d="M -13 -14 v -10 a 13 13 0 0 1 26 0 v 10" stroke="#B45309" stroke-width="6" fill="none"/>
    <circle cy="4" r="6 " fill="#B45309"/>
    <rect x="-2.5" y="4" width="5" height="10" rx="2" fill="#B45309"/>
  </g>
</svg>
