<svg viewBox="0 0 900 540" xmlns="http://www.w3.org/2000/svg" font-family="'PingFang SC','Hiragino Sans GB','Microsoft YaHei','Noto Sans SC',sans-serif">
  <rect width="900" height="540" fill="#FAF6EF"/>
  <text x="450" y="46" text-anchor="middle" font-size="24" font-weight="700" fill="#3D3229">The Three Fuels Behind This AI Boom</text>
  <text x="450" y="72" text-anchor="middle" font-size="13.5" fill="#9A8F80">Figure 2-2 | The rocket lifts off only when all three are ready</text>

  <!-- 火箭 -->
  <g transform="translate(450,0)">
    <path d="M -35 150 Q 0 66 35 150 Z" fill="#E8734A"/>
    <rect x="-35" y="142" width="70" height="122" rx="30" fill="#FFFFFF" stroke="#E0D6C6" stroke-width="3"/>
    <path d="M -35 226 L -68 272 L -35 258 Z" fill="#4A90D9"/>
    <path d="M 35 226 L 68 272 L 35 258 Z" fill="#4A90D9"/>
    <circle cy="188" r="21" fill="#CFE9F8" stroke="#A9D3EC" stroke-width="3"/>
    <path d="M -9 185 q 3.5 -4 7 0" stroke="#2C6E9E" stroke-width="2" fill="none" stroke-linecap="round"/>
    <path d="M 2 185 q 3.5 -4 7 0" stroke="#2C6E9E" stroke-width="2" fill="none" stroke-linecap="round"/>
    <path d="M -4 194 q 4 3.4 8 0" stroke="#2C6E9E" stroke-width="1.9" fill="none" stroke-linecap="round"/>
    <path d="M 0 268 q 24 32 0 62 q -24 -30 0 -62" fill="#F59E0B"/>
    <path d="M 0 278 q 14 22 0 42 q -14 -20 0 -42" fill="#F7C64B"/>
  </g>
  <path d="M 380 200 h -52 M 396 240 h -38 M 520 200 h 52 M 504 240 h 38" stroke="#DCD2C0" stroke-width="4" stroke-linecap="round"/>

  <!-- 输送箭头 -->
  <path d="M 200 372 C 220 330 320 320 402 316" stroke="#C9BCA6" stroke-width="3" stroke-dasharray="7 7" fill="none"/>
  <polygon points="406,316 392,310 394,324" fill="#C9BCA6"/>
  <path d="M 450 372 L 450 340" stroke="#C9BCA6" stroke-width="3" stroke-dasharray="7 7" fill="none"/>
  <polygon points="450,334 443,348 457,348" fill="#C9BCA6"/>
  <path d="M 700 372 C 680 330 580 320 498 316" stroke="#C9BCA6" stroke-width="3" stroke-dasharray="7 7" fill="none"/>
  <polygon points="494,316 508,310 506,324" fill="#C9BCA6"/>

  <!-- 燃料罐：数据 -->
  <rect x="140" y="378" width="120" height="86" rx="18" fill="#4A90D9"/>
  <rect x="174" y="394" width="52" height="12" rx="6" fill="#FFFFFF"/>
  <rect x="174" y="412" width="52" height="12" rx="6" fill="#FFFFFF"/>
  <rect x="174" y="430" width="52" height="12" rx="6" fill="#FFFFFF"/>
  <text x="200" y="496" text-anchor="middle" font-size="17" font-weight="700" fill="#4A90D9">Data</text>
  <text x="200" y="518" text-anchor="middle" font-size="13" fill="#8A7F72">Endless textbooks from the internet</text>

  <!-- 燃料罐：算力 -->
  <rect x="390" y="378" width="120" height="86" rx="18" fill="#F59E0B"/>
  <rect x="428" y="399" width="44" height="44" rx="6" fill="#FFFFFF"/>
  <rect x="440" y="411" width="20" height="20" rx="3" fill="#F59E0B"/>
  <path d="M 436 392 v -8 M 450 392 v -8 M 464 392 v -8 M 436 450 v 8 M 450 450 v 8 M 464 450 v 8 M 421 407 h -8 M 421 421 h -8 M 421 435 h -8 M 479 407 h 8 M 479 421 h 8 M 479 435 h 8" stroke="#FFFFFF" stroke-width="3" stroke-linecap="round"/>
  <text x="450" y="496" text-anchor="middle" font-size="17" font-weight="700" fill="#E8905A">Computing power</text>
  <text x="450" y="518" text-anchor="middle" font-size="13" fill="#8A7F72">Muscle from chips and GPUs</text>

  <!-- 燃料罐：算法 -->
  <rect x="640" y="378" width="120" height="86" rx="18" fill="#5FA968"/>
  <line x1="682" y1="402" x2="718" y2="402" stroke="#FFFFFF" stroke-width="3"/>
  <line x1="682" y1="402" x2="700" y2="436" stroke="#FFFFFF" stroke-width="3"/>
  <line x1="718" y1="402" x2="700" y2="436" stroke="#FFFFFF" stroke-width="3"/>
  <circle cx="682" cy="402" r="7" fill="#FFFFFF"/>
  <circle cx="718" cy="402" r="7" fill="#FFFFFF"/>
  <circle cx="700" cy="436" r="8" fill="#FFFFFF"/>
  <text x="700" y="496" text-anchor="middle" font-size="17" font-weight="700" fill="#5FA968">Algorithms</text>
  <text x="700" y="518" text-anchor="middle" font-size="13" fill="#8A7F72">Deep learning: smarter self-study</text>
</svg>
