<svg viewBox="0 0 960 480" xmlns="http://www.w3.org/2000/svg" font-family="'PingFang SC','Hiragino Sans GB','Microsoft YaHei','Noto Sans SC',sans-serif">
  <rect width="960" height="480" fill="#FAF6EF"/>
  <ellipse cx="480" cy="440" rx="380" ry="24" fill="#F1E7D6"/>

  <!-- 词卡链 -->
  <g font-size="19" font-weight="700" text-anchor="middle">
    <g transform="translate(330,220) rotate(-6)">
      <rect x="-44" y="-40" width="88" height="80" rx="12" fill="#FFFFFF" stroke="#E0D6C6" stroke-width="3"/>
      <text y="10" fill="#3D3229">The</text>
    </g>
    <line x1="378" y1="216" x2="412" y2="212" stroke="#C9BCA6" stroke-width="4" stroke-linecap="round"/>
    <g transform="translate(460,206) rotate(3)">
      <rect x="-44" y="-40" width="88" height="80" rx="12" fill="#FFFFFF" stroke="#E0D6C6" stroke-width="3"/>
      <text y="10" fill="#3D3229">weather</text>
    </g>
    <line x1="508" y1="208" x2="542" y2="212" stroke="#C9BCA6" stroke-width="4" stroke-linecap="round"/>
    <g transform="translate(590,220) rotate(-2)">
      <rect x="-44" y="-40" width="88" height="80" rx="12" fill="#FFFFFF" stroke="#E0D6C6" stroke-width="3"/>
      <text y="10" fill="#3D3229">is</text>
    </g>
    <line x1="638" y1="222" x2="668" y2="230" stroke="#C9BCA6" stroke-width="4" stroke-linecap="round" stroke-dasharray="6 6"/>
    <g transform="translate(716,244) rotate(8)">
      <rect x="-44" y="-40" width="88" height="80" rx="12" fill="#FFF3D6" stroke="#F59E0B" stroke-width="3.5"/>
      <text y="10" fill="#E8905A">nice</text>
    </g>
  </g>
  <path d="M 770 176 l 5 -11 l 4 11 l 11 3 l -10 5 l -1 12 l -8 -9 l -12 2 l 7 -9 z" fill="#F7C64B"/>

  <!-- 小悠 -->
  <g transform="translate(170,420)">
    <ellipse cx="-11" cy="0" rx="13" ry="6" fill="#3D3229"/>
    <ellipse cx="11" cy="0" rx="13" ry="6" fill="#3D3229"/>
    <rect x="-18" y="-62" width="15" height="60" rx="7" fill="#4C6FB0"/>
    <rect x="3" y="-62" width="15" height="60" rx="7" fill="#4C6FB0"/>
    <rect x="-28" y="-138" width="56" height="84" rx="24" fill="#F7C64B"/>
    <rect x="-42" y="-130" width="14" height="54" rx="7" fill="#F7C64B"/>
    <circle cx="-35" cy="-72" r="7" fill="#FFCFA8"/>
    <path d="M 28 -118 L 66 -140" stroke="#F7C64B" stroke-width="14" stroke-linecap="round"/>
    <circle cx="70" cy="-142" r="7.5" fill="#FFCFA8"/>
    <circle cy="-172" r="34" fill="#FFCFA8"/>
    <path d="M -34 -172 a 34 34 0 0 1 68 0 l 0 8 q -8 -8 -16 -4 q -8 -9 -18 -3 q -10 -8 -18 2 q -8 -5 -16 5 z" fill="#2E2A28"/>
    <circle cx="-12" cy="-163" r="3" fill="#2E2A28"/>
    <circle cx="12" cy="-163" r="3" fill="#2E2A28"/>
    <path d="M -8 -153 q 8 7 16 0" stroke="#2E2A28" stroke-width="2.4" fill="none" stroke-linecap="round"/>
    <ellipse cx="-22" cy="-155" rx="5" ry="3.4" fill="#F7A98C" opacity="0.55"/>
    <ellipse cx="22" cy="-155" rx="5" ry="3.4" fill="#F7A98C" opacity="0.55"/>
  </g>

  <!-- 泡泡：伸手接卡 -->
  <g transform="translate(830,330)">
    <ellipse cx="0" cy="128" rx="42" ry="8" fill="#E4DACA" opacity="0.8"/>
    <ellipse rx="38" ry="34" fill="#FFFFFF" stroke="#E0D6C6" stroke-width="2.5"/>
    <ellipse cy="-2" rx="24" ry="17" fill="#CFE9F8"/>
    <path d="M -13 -5 q 4.5 -5 9 0" stroke="#2C6E9E" stroke-width="2.4" fill="none" stroke-linecap="round"/>
    <path d="M 4 -5 q 4.5 -5 9 0" stroke="#2C6E9E" stroke-width="2.4" fill="none" stroke-linecap="round"/>
    <path d="M -5 4 q 5 4 10 0" stroke="#2C6E9E" stroke-width="2.2" fill="none" stroke-linecap="round"/>
    <line y1="-34" y2="-48" stroke="#B9AFA0" stroke-width="3" stroke-linecap="round"/>
    <circle cy="-53" r="5.5" fill="#F59E0B"/>
    <circle cx="-52" cy="-30" r="8" fill="#FFFFFF" stroke="#E0D6C6" stroke-width="2.5"/>
    <circle cx="42" cy="6" r="8" fill="#FFFFFF" stroke="#E0D6C6" stroke-width="2.5"/>
  </g>
</svg>
