<svg viewBox="0 0 900 420" xmlns="http://www.w3.org/2000/svg" font-family="'PingFang SC','Hiragino Sans GB','Microsoft YaHei','Noto Sans SC',sans-serif">
  <rect width="900" height="420" fill="#FAF6EF"/>
  <ellipse cx="450" cy="386" rx="360" ry="22" fill="#F1E7D6"/>

  <!-- 泡泡：张口蹦词 -->
  <g transform="translate(190,270)">
    <ellipse cx="0" cy="108" rx="42" ry="8" fill="#E4DACA" opacity="0.8"/>
    <ellipse rx="40" ry="36" fill="#FFFFFF" stroke="#E0D6C6" stroke-width="2.5"/>
    <ellipse cy="-2" rx="25" ry="18" fill="#CFE9F8"/>
    <path d="M -14 -7 q 4.5 -5 9 0" stroke="#2C6E9E" stroke-width="2.4" fill="none" stroke-linecap="round"/>
    <path d="M 5 -7 q 4.5 -5 9 0" stroke="#2C6E9E" stroke-width="2.4" fill="none" stroke-linecap="round"/>
    <ellipse cx="0" cy="7" rx="5" ry="6" fill="#2C6E9E"/>
    <line y1="-36" y2="-50" stroke="#B9AFA0" stroke-width="3" stroke-linecap="round"/>
    <circle cy="-55" r="5.5" fill="#F59E0B"/>
    <circle cx="-44" cy="8" r="8" fill="#FFFFFF" stroke="#E0D6C6" stroke-width="2.5"/>
    <circle cx="44" cy="8" r="8" fill="#FFFFFF" stroke="#E0D6C6" stroke-width="2.5"/>
  </g>

  <!-- 词粒 -->
  <g text-anchor="middle" font-weight="700" fill="#3D3229">
    <circle cx="330" cy="238" r="34" fill="#FFF3D6" stroke="#F59E0B" stroke-width="3"/>
    <text x="330" y="247" font-size="22">How</text>
    <circle cx="428" cy="206" r="30" fill="#FFFFFF" stroke="#E0D6C6" stroke-width="2.5"/>
    <text x="428" y="213" font-size="19">are</text>
    <circle cx="514" cy="186" r="26" fill="#FFFFFF" stroke="#E0D6C6" stroke-width="2.5"/>
    <text x="514" y="192" font-size="16">you</text>
    <circle cx="586" cy="176" r="21" fill="#FFFFFF" stroke="#E0D6C6" stroke-width="2.5"/>
    <text x="586" y="183" font-size="15">?</text>
    <circle cx="640" cy="172" r="9" fill="#EADFCC"/>
    <circle cx="672" cy="170" r="5" fill="#EADFCC"/>
  </g>

  <!-- 小悠：伸手接词 -->
  <g transform="translate(760,376)">
    <ellipse cx="-11" cy="0" rx="13" ry="6" fill="#3D3229"/>
    <ellipse cx="11" cy="0" rx="13" ry="6" fill="#3D3229"/>
    <rect x="-18" y="-62" width="15" height="60" rx="7" fill="#4C6FB0"/>
    <rect x="3" y="-62" width="15" height="60" rx="7" fill="#4C6FB0"/>
    <rect x="-28" y="-138" width="56" height="84" rx="24" fill="#F7C64B"/>
    <path d="M -28 -120 L -66 -152" stroke="#F7C64B" stroke-width="14" stroke-linecap="round"/>
    <circle cx="-70" cy="-156" r="7.5" fill="#FFCFA8"/>
    <rect x="28" y="-130" width="14" height="54" rx="7" fill="#F7C64B"/>
    <circle cx="35" cy="-72" r="7" fill="#FFCFA8"/>
    <circle cy="-172" r="34" fill="#FFCFA8"/>
    <path d="M -34 -172 a 34 34 0 0 1 68 0 l 0 8 q -8 -8 -16 -4 q -8 -9 -18 -3 q -10 -8 -18 2 q -8 -5 -16 5 z" fill="#2E2A28"/>
    <path d="M -16 -164 q 5 -4 9 0" stroke="#2E2A28" stroke-width="2.6" fill="none" stroke-linecap="round"/>
    <path d="M 7 -164 q 5 -4 9 0" stroke="#2E2A28" stroke-width="2.6" fill="none" stroke-linecap="round"/>
    <path d="M -8 -153 q 8 7 16 0" stroke="#2E2A28" stroke-width="2.4" fill="none" stroke-linecap="round"/>
    <ellipse cx="-22" cy="-155" rx="5" ry="3.4" fill="#F7A98C" opacity="0.55"/>
    <ellipse cx="22" cy="-155" rx="5" ry="3.4" fill="#F7A98C" opacity="0.55"/>
  </g>
</svg>
