<svg viewBox="0 0 960 480" xmlns="http://www.w3.org/2000/svg" font-family="'PingFang SC','Hiragino Sans GB','Microsoft YaHei','Noto Sans SC',sans-serif">
  <rect width="960" height="480" fill="#FAF6EF"/>
  <line x1="480" y1="70" x2="480" y2="430" stroke="#D8CCB8" stroke-width="3" stroke-dasharray="10 8"/>

  <!-- 左：想象中的AI -->
  <rect x="60" y="80" width="380" height="320" rx="24" fill="#E7EDF3"/>
  <circle cx="102" cy="112" r="16" fill="#E8734A"/>
  <path d="M 95 105 L 109 119 M 109 105 L 95 119" stroke="#FFFFFF" stroke-width="4" stroke-linecap="round"/>

  <line x1="250" y1="130" x2="250" y2="112" stroke="#8A97A5" stroke-width="5"/>
  <circle cx="250" cy="106" r="7" fill="#E8734A"/>
  <rect x="200" y="130" width="100" height="70" rx="10" fill="#9AA7B5"/>
  <rect x="216" y="152" width="24" height="12" rx="4" fill="#7FD1FF"/>
  <rect x="260" y="152" width="24" height="12" rx="4" fill="#7FD1FF"/>
  <rect x="228" y="178" width="44" height="7" rx="3.5" fill="#7B8894"/>
  <rect x="188" y="206" width="124" height="112" rx="12" fill="#B7C2CE"/>
  <circle cx="250" cy="238" r="14" fill="#8A97A5"/>
  <rect x="212" y="266" width="76" height="8" rx="4" fill="#9AA7B5"/>
  <rect x="212" y="284" width="76" height="8" rx="4" fill="#9AA7B5"/>
  <rect x="158" y="212" width="24" height="78" rx="11" fill="#9AA7B5"/>
  <rect x="318" y="212" width="24" height="78" rx="11" fill="#9AA7B5"/>
  <path d="M 162 296 l -8 16 M 178 296 l 8 16" stroke="#9AA7B5" stroke-width="8" stroke-linecap="round"/>
  <path d="M 322 296 l -8 16 M 338 296 l 8 16" stroke="#9AA7B5" stroke-width="8" stroke-linecap="round"/>
  <rect x="212" y="318" width="28" height="52" rx="10" fill="#9AA7B5"/>
  <rect x="260" y="318" width="28" height="52" rx="10" fill="#9AA7B5"/>
  <ellipse cx="226" cy="374" rx="22" ry="8" fill="#8A97A5"/>
  <ellipse cx="274" cy="374" rx="22" ry="8" fill="#8A97A5"/>
  <text x="250" y="436" text-anchor="middle" font-size="15" fill="#8A7F72">想象中：威风凛凛的机器人</text>

  <!-- 右：现实中的AI -->
  <rect x="520" y="80" width="380" height="320" rx="24" fill="#FFF8E8"/>
  <circle cx="562" cy="112" r="16" fill="#5FA968"/>
  <path d="M 554 112 l 6 7 l 11 -13" stroke="#FFFFFF" stroke-width="4" fill="none" stroke-linecap="round" stroke-linejoin="round"/>

  <line x1="548" y1="362" x2="876" y2="362" stroke="#E0D6C6" stroke-width="4" stroke-linecap="round"/>

  <!-- 手机 -->
  <rect x="572" y="258" width="52" height="100" rx="9" fill="#3D3229"/>
  <rect x="579" y="266" width="38" height="84" rx="5" fill="#CFE9F8"/>
  <circle cx="598" cy="308" r="6" fill="#4A90D9"/>
  <circle cx="598" cy="308" r="12" fill="#4A90D9" opacity="0.25"/>

  <!-- 智能音箱 -->
  <rect x="676" y="286" width="66" height="72" rx="16" fill="#F1EAE0" stroke="#E0D6C6" stroke-width="2.5"/>
  <circle cx="694" cy="316" r="2.6" fill="#C9BCA6"/><circle cx="709" cy="316" r="2.6" fill="#C9BCA6"/><circle cx="724" cy="316" r="2.6" fill="#C9BCA6"/>
  <circle cx="694" cy="330" r="2.6" fill="#C9BCA6"/><circle cx="709" cy="330" r="2.6" fill="#C9BCA6"/><circle cx="724" cy="330" r="2.6" fill="#C9BCA6"/>
  <circle cx="709" cy="296" r="5" fill="#4A90D9"/>
  <circle cx="709" cy="296" r="10" fill="#4A90D9" opacity="0.25"/>

  <!-- 小汽车 -->
  <path d="M 772 358 q 0 -26 30 -30 l 14 -18 q 30 -14 58 0 l 12 18 q 22 6 22 30 z" fill="#4A90D9"/>
  <path d="M 800 328 l 10 -14 q 12 -6 24 -4 l 0 18 z" fill="#DFF0FB"/>
  <path d="M 842 328 l 0 -18 q 12 0 20 6 l 8 12 z" fill="#DFF0FB"/>
  <circle cx="802" cy="358" r="13" fill="#3D3229"/><circle cx="802" cy="358" r="5" fill="#8A7F72"/>
  <circle cx="866" cy="358" r="13" fill="#3D3229"/><circle cx="866" cy="358" r="5" fill="#8A7F72"/>
  <circle cx="838" cy="304" r="5" fill="#F59E0B"/>
  <circle cx="838" cy="304" r="10" fill="#F59E0B" opacity="0.25"/>
  <text x="710" y="436" text-anchor="middle" font-size="15" fill="#8A7F72">现实中：藏在设备里的 AI</text>

  <!-- 泡泡：为右侧点赞 -->
  <g transform="translate(710,180)">
    <ellipse rx="34" ry="30" fill="#FFFFFF" stroke="#E0D6C6" stroke-width="2.5"/>
    <ellipse cy="-2" rx="21" ry="15" fill="#CFE9F8"/>
    <path d="M -11 -4 q 4 -4.5 8 0" stroke="#2C6E9E" stroke-width="2.2" fill="none" stroke-linecap="round"/>
    <path d="M 3 -4 q 4 -4.5 8 0" stroke="#2C6E9E" stroke-width="2.2" fill="none" stroke-linecap="round"/>
    <path d="M -4 4 q 4 3.6 8 0" stroke="#2C6E9E" stroke-width="2" fill="none" stroke-linecap="round"/>
    <line y1="-30" y2="-43" stroke="#B9AFA0" stroke-width="3" stroke-linecap="round"/>
    <circle cy="-48" r="5" fill="#F59E0B"/>
    <circle cx="-40" cy="-14" r="7.5" fill="#FFFFFF" stroke="#E0D6C6" stroke-width="2.5"/>
    <circle cx="38" cy="6" r="7.5" fill="#FFFFFF" stroke="#E0D6C6" stroke-width="2.5"/>
    <path d="M -52 -30 l 4 -9 l 3 9 l 9 2 l -8 4 l -1 10 l -6 -7 l -10 1 l 6 -7 z" fill="#F7C64B"/>
  </g>
</svg>
