<svg viewBox="0 0 900 500" xmlns="http://www.w3.org/2000/svg" font-family="'PingFang SC','Hiragino Sans GB','Microsoft YaHei','Noto Sans SC',sans-serif">
  <rect width="900" height="500" fill="#FAF6EF"/>
  <ellipse cx="450" cy="452" rx="350" ry="26" fill="#F1E7D6"/>

  <!-- 左侧卡片塔（9张） -->
  <g>
    <rect x="140" y="418" width="150" height="24" rx="6" fill="#FFFFFF" stroke="#E0D6C6" stroke-width="2.5"/>
    <rect x="148" y="394" width="150" height="24" rx="6" fill="#FFFFFF" stroke="#E0D6C6" stroke-width="2.5"/>
    <rect x="136" y="370" width="150" height="24" rx="6" fill="#FFFFFF" stroke="#E0D6C6" stroke-width="2.5"/>
    <rect x="150" y="346" width="150" height="24" rx="6" fill="#FFFFFF" stroke="#E0D6C6" stroke-width="2.5"/>
    <rect x="140" y="322" width="150" height="24" rx="6" fill="#FFFFFF" stroke="#E0D6C6" stroke-width="2.5"/>
    <rect x="152" y="298" width="150" height="24" rx="6" fill="#FFFFFF" stroke="#E0D6C6" stroke-width="2.5"/>
    <rect x="138" y="274" width="150" height="24" rx="6" fill="#FFFFFF" stroke="#E0D6C6" stroke-width="2.5"/>
    <rect x="148" y="250" width="150" height="24" rx="6" fill="#FFFFFF" stroke="#E0D6C6" stroke-width="2.5"/>
    <rect x="142" y="226" width="150" height="24" rx="6" fill="#FFFFFF" stroke="#E0D6C6" stroke-width="2.5"/>
    <path d="M 158 238 h 70 M 158 262 h 88 M 158 286 h 60 M 158 310 h 84 M 158 334 h 66 M 158 358 h 90 M 158 382 h 64 M 158 406 h 80 M 158 430 h 70" stroke="#DCD2C0" stroke-width="3" stroke-linecap="round"/>
  </g>

  <!-- 右侧卡片塔（11张，更高） -->
  <g>
    <rect x="600" y="418" width="150" height="24" rx="6" fill="#FFFFFF" stroke="#E0D6C6" stroke-width="2.5"/>
    <rect x="592" y="394" width="150" height="24" rx="6" fill="#FFFFFF" stroke="#E0D6C6" stroke-width="2.5"/>
    <rect x="606" y="370" width="150" height="24" rx="6" fill="#FFFFFF" stroke="#E0D6C6" stroke-width="2.5"/>
    <rect x="594" y="346" width="150" height="24" rx="6" fill="#FFFFFF" stroke="#E0D6C6" stroke-width="2.5"/>
    <rect x="604" y="322" width="150" height="24" rx="6" fill="#FFFFFF" stroke="#E0D6C6" stroke-width="2.5"/>
    <rect x="596" y="298" width="150" height="24" rx="6" fill="#FFFFFF" stroke="#E0D6C6" stroke-width="2.5"/>
    <rect x="608" y="274" width="150" height="24" rx="6" fill="#FFFFFF" stroke="#E0D6C6" stroke-width="2.5"/>
    <rect x="598" y="250" width="150" height="24" rx="6" fill="#FFFFFF" stroke="#E0D6C6" stroke-width="2.5"/>
    <rect x="606" y="226" width="150" height="24" rx="6" fill="#FFFFFF" stroke="#E0D6C6" stroke-width="2.5"/>
    <rect x="596" y="202" width="150" height="24" rx="6" fill="#FFFFFF" stroke="#E0D6C6" stroke-width="2.5"/>
    <rect x="604" y="178" width="150" height="24" rx="6" fill="#FFFFFF" stroke="#E0D6C6" stroke-width="2.5"/>
    <path d="M 618 190 h 76 M 616 214 h 60 M 618 238 h 88 M 618 262 h 64 M 622 286 h 80 M 616 310 h 68 M 622 334 h 90 M 614 358 h 62 M 624 382 h 84 M 612 406 h 70 M 618 430 h 78" stroke="#DCD2C0" stroke-width="3" stroke-linecap="round"/>
  </g>

  <!-- 中间矮塔 -->
  <rect x="380" y="418" width="140" height="24" rx="6" fill="#FFFFFF" stroke="#E0D6C6" stroke-width="2.5"/>
  <rect x="388" y="394" width="140" height="24" rx="6" fill="#FFFFFF" stroke="#E0D6C6" stroke-width="2.5"/>
  <rect x="382" y="370" width="140" height="24" rx="6" fill="#FFFFFF" stroke="#E0D6C6" stroke-width="2.5"/>
  <path d="M 398 382 h 70 M 398 406 h 84 M 398 430 h 62" stroke="#DCD2C0" stroke-width="3" stroke-linecap="round"/>

  <!-- 泡泡：晕头转向 -->
  <g transform="translate(452,318)">
    <ellipse rx="40" ry="36" fill="#FFFFFF" stroke="#E0D6C6" stroke-width="2.5"/>
    <ellipse cy="-2" rx="25" ry="18" fill="#CFE9F8"/>
    <path d="M -15 -10 L -6 -1 M -15 -1 L -6 -10" stroke="#2C6E9E" stroke-width="2.6" stroke-linecap="round"/>
    <path d="M 6 -10 L 15 -1 M 6 -1 L 15 -10" stroke="#2C6E9E" stroke-width="2.6" stroke-linecap="round"/>
    <path d="M -7 8 q 3.5 -3.5 7 0 q 3.5 3.5 7 0" stroke="#2C6E9E" stroke-width="2.2" fill="none" stroke-linecap="round"/>
    <line y1="-36" y2="-50" stroke="#B9AFA0" stroke-width="3" stroke-linecap="round"/>
    <circle cy="-55" r="5.5" fill="#F59E0B"/>
    <circle cx="-46" cy="10" r="8" fill="#FFFFFF" stroke="#E0D6C6" stroke-width="2.5"/>
    <circle cx="46" cy="10" r="8" fill="#FFFFFF" stroke="#E0D6C6" stroke-width="2.5"/>
    <path d="M 34 -52 q 6 -10 16 -10" stroke="#7FC3E8" stroke-width="4" fill="none" stroke-linecap="round"/>
    <path d="M 52 -44 c 0 -7 8 -14 8 -4 c 0 6 -8 10 -8 4 z" fill="#7FC3E8"/>
    <path d="M -78 -46 a 22 22 0 1 1 6 16" stroke="#C9BCA6" stroke-width="3" fill="none" stroke-linecap="round"/>
  </g>

  <!-- 飞舞的卡片 -->
  <g transform="translate(360,150) rotate(-18)">
    <rect width="110" height="22" rx="6" fill="#FFFFFF" stroke="#E0D6C6" stroke-width="2.5"/>
    <path d="M 12 11 h 56" stroke="#DCD2C0" stroke-width="3" stroke-linecap="round"/>
  </g>
  <g transform="translate(500,110) rotate(14)">
    <rect width="110" height="22" rx="6" fill="#FFFFFF" stroke="#E0D6C6" stroke-width="2.5"/>
    <path d="M 12 11 h 68" stroke="#DCD2C0" stroke-width="3" stroke-linecap="round"/>
  </g>
  <g transform="translate(430,72) rotate(-6)">
    <rect width="100" height="22" rx="6" fill="#FFFFFF" stroke="#E0D6C6" stroke-width="2.5"/>
    <path d="M 12 11 h 52" stroke="#DCD2C0" stroke-width="3" stroke-linecap="round"/>
  </g>
</svg>
