<svg viewBox="0 0 900 520" xmlns="http://www.w3.org/2000/svg" font-family="'PingFang SC','Hiragino Sans GB','Microsoft YaHei','Noto Sans SC',sans-serif">
  <rect width="900" height="520" fill="#FAF6EF"/>

  <!-- 窗与夕阳 -->
  <rect x="620" y="60" width="200" height="150" rx="14" fill="#FFF3D6" stroke="#E0D6C6" stroke-width="3"/>
  <circle cx="720" cy="135" r="34" fill="#F7C64B"/>
  <path d="M 720 88 L 720 74 M 758 100 L 768 90 M 770 135 L 784 135 M 758 170 L 768 180 M 682 100 L 672 90 M 670 135 L 656 135" stroke="#F7C64B" stroke-width="4" stroke-linecap="round"/>

  <ellipse cx="440" cy="478" rx="330" ry="26" fill="#F1E7D6"/>

  <!-- 小悠（上半身，先画，桌子随后遮挡） -->
  <g transform="translate(300,336)">
    <rect x="-30" y="-92" width="60" height="96" rx="24" fill="#F7C64B"/>
    <circle cy="-126" r="34" fill="#FFCFA8"/>
    <path d="M -34 -126 a 34 34 0 0 1 68 0 l 0 8 q -8 -8 -16 -4 q -8 -9 -18 -3 q -10 -8 -18 2 q -8 -5 -16 5 z" fill="#2E2A28"/>
    <circle cx="-12" cy="-117" r="3" fill="#2E2A28"/>
    <circle cx="12" cy="-117" r="3" fill="#2E2A28"/>
    <path d="M -8 -107 q 8 7 16 0" stroke="#2E2A28" stroke-width="2.4" fill="none" stroke-linecap="round"/>
    <ellipse cx="-22" cy="-109" rx="5" ry="3.4" fill="#F7A98C" opacity="0.55"/>
    <ellipse cx="22" cy="-109" rx="5" ry="3.4" fill="#F7A98C" opacity="0.55"/>
  </g>

  <!-- 书桌 -->
  <rect x="150" y="330" width="600" height="26" rx="13" fill="#D9A05B"/>
  <rect x="190" y="356" width="22" height="112" rx="8" fill="#C98F4E"/>
  <rect x="688" y="356" width="22" height="112" rx="8" fill="#C98F4E"/>

  <!-- 手臂搭在桌上 -->
  <path d="M 278 300 L 330 324" stroke="#F7C64B" stroke-width="14" stroke-linecap="round"/>
  <circle cx="336" cy="326" r="8" fill="#FFCFA8"/>
  <path d="M 322 300 L 386 322" stroke="#F7C64B" stroke-width="14" stroke-linecap="round"/>
  <circle cx="392" cy="324" r="8" fill="#FFCFA8"/>

  <!-- 摊开的书 -->
  <path d="M 420 326 L 420 290 Q 465 300 508 290 L 508 326 Q 465 316 420 326 Z" fill="#FFFFFF" stroke="#E0D6C6" stroke-width="2.5"/>
  <path d="M 508 326 L 508 290 Q 553 300 596 290 L 596 326 Q 553 316 508 326 Z" fill="#FFFFFF" stroke="#E0D6C6" stroke-width="2.5"/>
  <line x1="508" y1="290" x2="508" y2="326" stroke="#E0D6C6" stroke-width="2.5"/>
  <path d="M 434 302 h 56 M 434 312 h 44 M 524 302 h 56 M 524 312 h 44" stroke="#DCD2C0" stroke-width="3" stroke-linecap="round"/>

  <!-- 茶杯与热气 -->
  <rect x="636" y="298" width="34" height="30" rx="7" fill="#E8734A"/>
  <path d="M 670 306 q 14 4 0 16" stroke="#E8734A" stroke-width="5" fill="none" stroke-linecap="round"/>
  <path d="M 646 288 q 5 -8 0 -16 M 660 288 q 5 -8 0 -16" stroke="#C9BCA6" stroke-width="3" fill="none" stroke-linecap="round" opacity="0.8"/>

  <!-- 泡泡：悬在书页上方好奇张望 -->
  <g transform="translate(520,208) rotate(8)">
    <ellipse rx="38" ry="34" fill="#FFFFFF" stroke="#E0D6C6" stroke-width="2.5"/>
    <ellipse cy="-2" rx="24" ry="17" fill="#CFE9F8"/>
    <circle cx="-9" cy="-4" r="3" fill="#2C6E9E"/>
    <circle cx="9" cy="-4" r="3" fill="#2C6E9E"/>
    <circle cx="0" cy="6" r="2.6" fill="#2C6E9E"/>
    <line y1="-34" y2="-48" stroke="#B9AFA0" stroke-width="3" stroke-linecap="round"/>
    <circle cy="-53" r="5.5" fill="#F59E0B"/>
    <circle cx="-42" cy="10" r="8" fill="#FFFFFF" stroke="#E0D6C6" stroke-width="2.5"/>
    <circle cx="42" cy="10" r="8" fill="#FFFFFF" stroke="#E0D6C6" stroke-width="2.5"/>
  </g>
  <path d="M 576 176 l 6 -12 l 4 13 l 13 3 l -12 6 l -1 13 l -9 -10 l -13 2 l 8 -11 z" fill="#F7C64B" opacity="0.9"/>
</svg>
