<svg viewBox="0 0 960 500" xmlns="http://www.w3.org/2000/svg" font-family="'PingFang SC','Hiragino Sans GB','Microsoft YaHei','Noto Sans SC',sans-serif">
  <rect width="960" height="500" fill="#FAF6EF"/>

  <!-- 朝阳与光晕 -->
  <circle cx="640" cy="310" r="120" fill="#FDEBC0" opacity="0.55"/>
  <circle cx="640" cy="310" r="78" fill="#F7C64B"/>
  <g stroke="#F2C48A" stroke-width="5" stroke-linecap="round">
    <line x1="640" y1="176" x2="640" y2="146"/>
    <line x1="742" y1="218" x2="764" y2="196"/>
    <line x1="538" y1="218" x2="516" y2="196"/>
    <line x1="784" y1="310" x2="814" y2="310"/>
  </g>

  <!-- 小鸟 -->
  <path d="M 320 130 q 10 -12 20 0 q 10 -12 20 0" stroke="#8A7F72" stroke-width="3.5" fill="none" stroke-linecap="round"/>
  <path d="M 420 92 q 8 -10 16 0 q 8 -10 16 0" stroke="#8A7F72" stroke-width="3" fill="none" stroke-linecap="round"/>

  <!-- 山丘 -->
  <path d="M 0 360 Q 240 280 480 340 T 960 330 L 960 500 L 0 500 Z" fill="#F1E7D6"/>
  <path d="M 0 420 Q 300 350 620 410 T 960 400 L 960 500 L 0 500 Z" fill="#EAE0CE"/>

  <!-- 小悠背影：坐姿 -->
  <g transform="translate(330,338)">
    <rect x="-30" y="-64" width="60" height="72" rx="22" fill="#F7C64B"/>
    <rect x="-40" y="-56" width="14" height="48" rx="7" fill="#F7C64B"/>
    <rect x="26" y="-56" width="14" height="48" rx="7" fill="#F7C64B"/>
    <circle cy="-92" r="34" fill="#2E2A28"/>
    <path d="M -30 -76 a 34 34 0 0 1 60 0" fill="#2E2A28"/>
    <rect x="-26" y="4" width="20" height="26" rx="9" fill="#4C6FB0"/>
    <rect x="6" y="4" width="20" height="26" rx="9" fill="#4C6FB0"/>
    <ellipse cx="-16" cy="34" rx="14" ry="6" fill="#3D3229"/>
    <ellipse cx="16" cy="34" rx="14" ry="6" fill="#3D3229"/>
  </g>

  <!-- 泡泡背影 -->
  <g transform="translate(452,300)">
    <ellipse cx="0" cy="52" rx="44" ry="8" fill="#E4DACA" opacity="0.7"/>
    <ellipse rx="38" ry="34" fill="#FFFFFF" stroke="#E0D6C6" stroke-width="2.5"/>
    <line y1="-34" y2="-48" stroke="#B9AFA0" stroke-width="3" stroke-linecap="round"/>
    <circle cy="-53" r="5.5" fill="#F59E0B"/>
    <circle cx="-42" cy="8" r="8" fill="#FFFFFF" stroke="#E0D6C6" stroke-width="2.5"/>
    <circle cx="42" cy="8" r="8" fill="#FFFFFF" stroke="#E0D6C6" stroke-width="2.5"/>
  </g>

  <path d="M 180 200 l 5 -11 l 4 11 l 11 3 l -10 5 l -1 12 l -8 -9 l -12 2 l 7 -9 z" fill="#F7C64B" opacity="0.8"/>
  <path d="M 830 150 l 4 -9 l 3 9 l 9 2 l -8 4 l -1 10 l -6 -7 l -10 1 l 6 -7 z" fill="#F2A65A" opacity="0.7"/>
</svg>
