<svg viewBox="0 0 900 500" xmlns="http://www.w3.org/2000/svg" font-family="'PingFang SC','Hiragino Sans GB','Microsoft YaHei','Noto Sans SC',sans-serif">
  <rect width="900" height="500" fill="#FAF6EF"/>
  <ellipse cx="450" cy="458" rx="330" ry="26" fill="#F1E7D6"/>

  <!-- 小悠：站立微笑 -->
  <g transform="translate(300,440)">
    <ellipse cx="-11" cy="0" rx="13" ry="6" fill="#3D3229"/>
    <ellipse cx="11" cy="0" rx="13" ry="6" fill="#3D3229"/>
    <rect x="-18" y="-62" width="15" height="60" rx="7" fill="#4C6FB0"/>
    <rect x="3" y="-62" width="15" height="60" rx="7" fill="#4C6FB0"/>
    <rect x="-28" y="-138" width="56" height="84" rx="24" fill="#F7C64B"/>
    <rect x="-42" y="-130" width="14" height="54" rx="7" fill="#F7C64B"/>
    <circle cx="-35" cy="-72" r="7" fill="#FFCFA8"/>
    <rect x="28" y="-130" width="14" height="54" rx="7" fill="#F7C64B"/>
    <circle cx="35" cy="-72" r="7" fill="#FFCFA8"/>
    <circle cy="-172" r="34" fill="#FFCFA8"/>
    <path d="M -34 -172 a 34 34 0 0 1 68 0 l 0 8 q -8 -8 -16 -4 q -8 -9 -18 -3 q -10 -8 -18 2 q -8 -5 -16 5 z" fill="#2E2A28"/>
    <circle cx="-12" cy="-163" r="3" fill="#2E2A28"/>
    <circle cx="12" cy="-163" r="3" fill="#2E2A28"/>
    <path d="M -8 -153 q 8 7 16 0" stroke="#2E2A28" stroke-width="2.4" fill="none" stroke-linecap="round"/>
    <ellipse cx="-22" cy="-155" rx="5" ry="3.4" fill="#F7A98C" opacity="0.55"/>
    <ellipse cx="22" cy="-155" rx="5" ry="3.4" fill="#F7A98C" opacity="0.55"/>
  </g>

  <!-- 识别框与特征虚线 -->
  <circle cx="300" cy="268" r="50" stroke="#4A90D9" stroke-width="2.5" stroke-dasharray="6 6" fill="none"/>
  <path d="M 238 226 L 238 208 L 256 208" stroke="#4A90D9" stroke-width="4" fill="none" stroke-linecap="round"/>
  <path d="M 344 208 L 362 208 L 362 226 " stroke="#4A90D9" stroke-width="4" fill="none" stroke-linecap="round"/>
  <path d="M 238 312 L 238 330 L 256 330" stroke="#4A90D9" stroke-width="4" fill="none" stroke-linecap="round"/>
  <path d="M 344 330 L 362 330 L 362 312" stroke="#4A90D9" stroke-width="4" fill="none" stroke-linecap="round"/>
  <line x1="272" y1="277" x2="328" y2="277" stroke="#7FB4D9" stroke-width="2" stroke-dasharray="4 5"/>
  <line x1="282" y1="292" x2="318" y2="292" stroke="#7FB4D9" stroke-width="2" stroke-dasharray="4 5"/>

  <!-- 泡泡：专注举放大镜 -->
  <g transform="translate(590,300)">
    <ellipse cx="0" cy="146" rx="42" ry="8" fill="#E4DACA" opacity="0.8"/>
    <ellipse rx="38" ry="34" fill="#FFFFFF" stroke="#E0D6C6" stroke-width="2.5"/>
    <ellipse cy="-2" rx="24" ry="17" fill="#CFE9F8"/>
    <circle cx="-9" cy="-4" r="3" fill="#2C6E9E"/>
    <circle cx="9" cy="-4" r="3" fill="#2C6E9E"/>
    <path d="M -4 6 q 4 3 8 0" stroke="#2C6E9E" stroke-width="2.2" fill="none" stroke-linecap="round"/>
    <line y1="-34" y2="-48" stroke="#B9AFA0" stroke-width="3" stroke-linecap="round"/>
    <circle cy="-53" r="5.5" fill="#F59E0B"/>
    <circle cx="-88" cy="-8" r="27" fill="#DFF0FB" opacity="0.75" stroke="#4A90D9" stroke-width="5"/>
    <line x1="-68" y1="10" x2="-46" y2="8" stroke="#C77E3E" stroke-width="8" stroke-linecap="round"/>
    <circle cx="-42" cy="8" r="8" fill="#FFFFFF" stroke="#E0D6C6" stroke-width="2.5"/>
    <circle cx="42" cy="6" r="8" fill="#FFFFFF" stroke="#E0D6C6" stroke-width="2.5"/>
  </g>

  <path d="M 470 150 l 5 -11 l 4 11 l 11 3 l -10 5 l -1 12 l -8 -9 l -12 2 l 7 -9 z" fill="#F7C64B" opacity="0.9"/>
  <path d="M 200 130 l 4 -9 l 3 9 l 9 2 l -8 4 l -1 10 l -6 -7 l -10 1 l 6 -7 z" fill="#F2A65A" opacity="0.8"/>
</svg>
