<svg viewBox="0 0 900 500" xmlns="http://www.w3.org/2000/svg" font-family="'PingFang SC','Hiragino Sans GB','Microsoft YaHei','Noto Sans SC',sans-serif">
  <rect width="900" height="500" fill="#FAF6EF"/>

  <!-- 夜窗 -->
  <rect x="618" y="62" width="212" height="150" rx="14" fill="#3E5375"/>
  <circle cx="744" cy="118" r="26" fill="#FFF3D6"/>
  <circle cx="733" cy="110" r="21" fill="#3E5375"/>
  <circle cx="662" cy="98" r="3" fill="#FFF3D6"/>
  <circle cx="690" cy="176" r="2.5" fill="#FFF3D6"/>
  <circle cx="800" cy="180" r="2.5" fill="#FFF3D6"/>
  <circle cx="666" cy="150" r="2" fill="#FFF3D6"/>

  <!-- 屏幕光晕 -->
  <ellipse cx="450" cy="280" rx="180" ry="110" fill="#FFF3D6" opacity="0.5"/>

  <!-- 书桌 -->
  <rect x="140" y="344" width="620" height="24" rx="12" fill="#D9A05B"/>
  <rect x="180" y="368" width="22" height="100" rx="8" fill="#C98F4E"/>
  <rect x="700" y="368" width="22" height="100" rx="8" fill="#C98F4E"/>

  <!-- 笔记本电脑 -->
  <rect x="360" y="204" width="184" height="126" rx="10" fill="#3D3229"/>
  <rect x="368" y="212" width="168" height="110" rx="6" fill="#EAF6FF"/>
  <rect x="380" y="226" width="74" height="18" rx="9" fill="#D8E4EE"/>
  <rect x="380" y="252" width="98" height="18" rx="9" fill="#D8E4EE"/>
  <rect x="452" y="278" width="70" height="18" rx="9" fill="#4A90D9"/>
  <rect x="380" y="300" width="112" height="14" rx="7" fill="#D8E4EE"/>
  <path d="M 344 344 L 560 344 L 544 330 L 360 330 Z" fill="#8A7F72"/>

  <!-- 小悠：捧脸惊叹 -->
  <g transform="translate(640,350)">
    <rect x="-30" y="-92" width="60" height="94" rx="24" fill="#F7C64B"/>
    <path d="M -24 -66 L -32 -96" stroke="#F7C64B" stroke-width="13" stroke-linecap="round"/>
    <path d="M 24 -66 L 32 -96" stroke="#F7C64B" stroke-width="13" stroke-linecap="round"/>
    <circle cy="-124" r="32" fill="#FFCFA8"/>
    <path d="M -32 -124 a 32 32 0 0 1 64 0 l 0 7 q -8 -7 -15 -3 q -8 -8 -17 -2 q -9 -7 -17 2 q -7 -4 -15 4 z" fill="#2E2A28"/>
    <circle cx="-11" cy="-114" r="4.6" fill="#FFFFFF" stroke="#2E2A28" stroke-width="2"/>
    <circle cx="-11" cy="-114" r="1.8" fill="#2E2A28"/>
    <circle cx="11" cy="-114" r="4.6" fill="#FFFFFF" stroke="#2E2A28" stroke-width="2"/>
    <circle cx="11" cy="-114" r="1.8" fill="#2E2A28"/>
    <ellipse cx="0" cy="-100" rx="4" ry="5.5" fill="#2E2A28"/>
    <ellipse cx="-21" cy="-106" rx="4.5" ry="3.2" fill="#F7A98C" opacity="0.6"/>
    <ellipse cx="21" cy="-106" rx="4.5" ry="3.2" fill="#F7A98C" opacity="0.6"/>
    <circle cx="-33" cy="-102" r="7.5" fill="#FFCFA8"/>
    <circle cx="33" cy="-102" r="7.5" fill="#FFCFA8"/>
  </g>

  <!-- 泡泡：开心打转 -->
  <g transform="translate(240,250) rotate(-14)">
    <ellipse rx="38" ry="34" fill="#FFFFFF" stroke="#E0D6C6" stroke-width="2.5"/>
    <ellipse cy="-2" rx="24" ry="17" fill="#CFE9F8"/>
    <path d="M -13 -5 q 4.5 -5 9 0" stroke="#2C6E9E" stroke-width="2.4" fill="none" stroke-linecap="round"/>
    <path d="M 4 -5 q 4.5 -5 9 0" stroke="#2C6E9E" stroke-width="2.4" fill="none" stroke-linecap="round"/>
    <path d="M -6 4 q 6 5 12 0" stroke="#2C6E9E" stroke-width="2.2" fill="none" stroke-linecap="round"/>
    <line y1="-34" y2="-48" stroke="#B9AFA0" stroke-width="3" stroke-linecap="round"/>
    <circle cy="-53" r="5.5" fill="#F59E0B"/>
    <circle cx="-46" cy="-14" r="8" fill="#FFFFFF" stroke="#E0D6C6" stroke-width="2.5"/>
    <circle cx="46" cy="-14" r="8" fill="#FFFFFF" stroke="#E0D6C6" stroke-width="2.5"/>
    <path d="M -58 24 a 60 40 0 0 0 116 0" stroke="#DCD2C0" stroke-width="3" fill="none" stroke-linecap="round" stroke-dasharray="8 8"/>
  </g>

  <!-- 彩色纸屑 -->
  <rect x="190" y="140" width="10" height="10" rx="2" fill="#E8734A" transform="rotate(20 195 145)"/>
  <rect x="290" y="110" width="9" height="9" rx="2" fill="#4A90D9" transform="rotate(-15 294 114)"/>
  <circle cx="250" cy="170" r="5" fill="#F7C64B"/>
  <circle cx="330" cy="150" r="4" fill="#5FA968"/>
  <rect x="160" y="210" width="9" height="9" rx="2" fill="#8B6FC0" transform="rotate(30 164 214)"/>
  <path d="M 560 150 l 5 -11 l 4 11 l 11 3 l -10 5 l -1 12 l -8 -9 l -12 2 l 7 -9 z" fill="#F7C64B" opacity="0.9"/>
</svg>
