<svg viewBox="0 0 960 500" xmlns="http://www.w3.org/2000/svg" font-family="'PingFang SC','Hiragino Sans GB','Microsoft YaHei','Noto Sans SC',sans-serif">
  <rect width="960" height="500" fill="#FAF6EF"/>
  <ellipse cx="480" cy="458" rx="380" ry="26" fill="#F1E7D6"/>

  <!-- 小悠：举卡片授课 -->
  <g transform="translate(300,440)">
    <ellipse cx="-11" cy="0" rx="13" ry="6" fill="#3D3229"/>
    <ellipse cx="11" cy="0" rx="13" ry="6" fill="#3D3229"/>
    <rect x="-18" y="-62" width="15" height="60" rx="7" fill="#4C6FB0"/>
    <rect x="3" y="-62" width="15" height="60" rx="7" fill="#4C6FB0"/>
    <rect x="-28" y="-138" width="56" height="84" rx="24" fill="#F7C64B"/>
    <rect x="-42" y="-130" width="14" height="54" rx="7" fill="#F7C64B"/>
    <circle cx="-35" cy="-72" r="7" fill="#FFCFA8"/>
    <path d="M 28 -120 L 78 -160" stroke="#F7C64B" stroke-width="14" stroke-linecap="round"/>
    <circle cx="82" cy="-163" r="7.5" fill="#FFCFA8"/>
    <circle cy="-172" r="34" fill="#FFCFA8"/>
    <path d="M -34 -172 a 34 34 0 0 1 68 0 l 0 8 q -8 -8 -16 -4 q -8 -9 -18 -3 q -10 -8 -18 2 q -8 -5 -16 5 z" fill="#2E2A28"/>
    <circle cx="-12" cy="-163" r="3" fill="#2E2A28"/>
    <circle cx="12" cy="-163" r="3" fill="#2E2A28"/>
    <path d="M -8 -153 q 8 7 16 0" stroke="#2E2A28" stroke-width="2.4" fill="none" stroke-linecap="round"/>
    <ellipse cx="-22" cy="-155" rx="5" ry="3.4" fill="#F7A98C" opacity="0.55"/>
    <ellipse cx="22" cy="-155" rx="5" ry="3.4" fill="#F7A98C" opacity="0.55"/>
  </g>

  <!-- 大卡片：橘猫 -->
  <g transform="translate(452,236) rotate(6)">
    <rect x="-72" y="-92" width="144" height="184" rx="14" fill="#FFFFFF" stroke="#E0D6C6" stroke-width="3.5"/>
    <circle cy="-14" r="44" fill="#F2A65A"/>
    <path d="M -38 -40 L -46 -72 L -16 -52 Z" fill="#F2A65A"/>
    <path d="M 38 -40 L 46 -72 L 16 -52 Z" fill="#F2A65A"/>
    <path d="M -34 -46 L -38 -62 L -24 -52 Z" fill="#E8905A"/>
    <path d="M 34 -46 L 38 -62 L 24 -52 Z" fill="#E8905A"/>
    <path d="M -44 -26 q -8 -2 -12 2 M -44 -14 q -8 0 -12 4 M 44 -26 q 8 -2 12 2 M 44 -14 q 8 0 12 4" stroke="#C77E3E" stroke-width="2.5" fill="none" stroke-linecap="round"/>
    <circle cx="-16" cy="-20" r="4" fill="#3D3229"/>
    <circle cx="16" cy="-20" r="4" fill="#3D3229"/>
    <path d="M 0 -8 l -5 -6 h 10 z" fill="#E8734A"/>
    <path d="M 0 -8 q -6 8 -14 4 M 0 -8 q 6 8 14 4" stroke="#3D3229" stroke-width="2.4" fill="none" stroke-linecap="round"/>
    <path d="M -14 -50 q 4 8 0 14 M 0 -56 q 3 8 0 14 M 14 -50 q -4 8 0 14" stroke="#E8905A" stroke-width="3" fill="none" stroke-linecap="round"/>
    <path d="M -34 58 q 34 16 68 0" stroke="#F2A65A" stroke-width="10" fill="none" stroke-linecap="round"/>
  </g>

  <!-- 小桌与卡片堆 -->
  <rect x="620" y="356" width="200" height="20" rx="10" fill="#D9A05B"/>
  <rect x="646" y="376" width="16" height="80" rx="6" fill="#C98F4E"/>
  <rect x="778" y="376" width="16" height="80" rx="6" fill="#C98F4E"/>
  <g transform="translate(720,344)">
    <rect x="-64" y="-14" width="128" height="16" rx="5" fill="#FFFFFF" stroke="#E0D6C6" stroke-width="2.5"/>
    <rect x="-58" y="-30" width="128" height="16" rx="5" fill="#FFFFFF" stroke="#E0D6C6" stroke-width="2.5"/>
    <rect x="-66" y="-46" width="128" height="16" rx="5" fill="#FFFFFF" stroke="#E0D6C6" stroke-width="2.5"/>
    <g transform="translate(4,-84) rotate(-8)">
      <rect x="-46" y="-30" width="92" height="62" rx="8" fill="#FFFFFF" stroke="#E0D6C6" stroke-width="2.5"/>
      <circle cy="4" r="17" fill="#8A7F72"/>
      <path d="M -14 -6 L -19 -19 L -6 -12 Z" fill="#8A7F72"/>
      <path d="M 14 -6 L 19 -19 L 6 -12 Z" fill="#8A7F72"/>
    </g>
  </g>

  <!-- 泡泡：认真听课 -->
  <g transform="translate(600,262)">
    <ellipse cx="0" cy="196" rx="42" ry="8" fill="#E4DACA" opacity="0.8"/>
    <ellipse rx="38" ry="34" fill="#FFFFFF" stroke="#E0D6C6" stroke-width="2.5"/>
    <ellipse cy="-2" rx="24" ry="17" fill="#CFE9F8"/>
    <circle cx="-9" cy="-4" r="3" fill="#2C6E9E"/>
    <circle cx="9" cy="-4" r="3" fill="#2C6E9E"/>
    <circle cx="0" cy="6" r="2.6" fill="#2C6E9E"/>
    <line y1="-34" y2="-48" stroke="#B9AFA0" stroke-width="3" stroke-linecap="round"/>
    <circle cy="-53" r="5.5" fill="#F59E0B"/>
    <circle cx="-42" cy="6" r="8" fill="#FFFFFF" stroke="#E0D6C6" stroke-width="2.5"/>
    <circle cx="42" cy="6" r="8" fill="#FFFFFF" stroke="#E0D6C6" stroke-width="2.5"/>
  </g>
  <path d="M 560 168 l 5 -11 l 4 11 l 11 3 l -10 5 l -1 12 l -8 -9 l -12 2 l 7 -9 z" fill="#F7C64B" opacity="0.9"/>
  <path d="M 150 200 l 4 -9 l 3 9 l 9 2 l -8 4 l -1 10 l -6 -7 l -10 1 l 6 -7 z" fill="#F2A65A" opacity="0.8"/>
</svg>
