<svg viewBox="0 0 960 480" xmlns="http://www.w3.org/2000/svg" font-family="'PingFang SC','Hiragino Sans GB','Microsoft YaHei','Noto Sans SC',sans-serif">
  <rect width="960" height="480" fill="#FAF6EF"/>
  <ellipse cx="480" cy="442" rx="390" ry="24" fill="#F1E7D6"/>

  <!-- 书架 -->
  <rect x="120" y="80" width="430" height="356" rx="12" fill="#D9A05B"/>
  <rect x="138" y="98" width="394" height="92" rx="6" fill="#F7EFE2"/>
  <rect x="138" y="212" width="394" height="92" rx="6" fill="#F7EFE2"/>
  <rect x="138" y="326" width="394" height="92" rx="6" fill="#F7EFE2"/>
  <!-- 第一层书脊 -->
  <g>
    <rect x="150" y="108" width="26" height="82" rx="3" fill="#4A90D9"/>
    <rect x="180" y="116" width="22" height="74" rx="3" fill="#F59E0B"/>
    <rect x="206" y="104" width="30" height="86" rx="3" fill="#5FA968"/>
    <rect x="240" y="118" width="20" height="72" rx="3" fill="#E8734A"/>
    <rect x="264" y="110" width="26" height="80" rx="3" fill="#8B6FC0"/>
    <g transform="translate(320,152) rotate(14)"><rect x="-14" y="-38" width="28" height="76" rx="3" fill="#F2A65A"/></g>
    <rect x="352" y="112" width="24" height="78" rx="3" fill="#4A90D9"/>
    <rect x="380" y="120" width="20" height="70" rx="3" fill="#5FA968"/>
    <rect x="404" y="106" width="28" height="84" rx="3" fill="#F59E0B"/>
    <rect x="436" y="114" width="22" height="76" rx="3" fill="#E8734A"/>
    <rect x="462" y="108" width="26" height="82" rx="3" fill="#8B6FC0"/>
  </g>
  <!-- 第二层书脊 -->
  <g>
    <rect x="150" y="226" width="24" height="78" rx="3" fill="#E8734A"/>
    <rect x="178" y="234" width="28" height="70" rx="3" fill="#4A90D9"/>
    <rect x="210" y="222" width="22" height="82" rx="3" fill="#F59E0B"/>
    <rect x="236" y="230" width="26" height="74" rx="3" fill="#5FA968"/>
    <rect x="290" y="278" width="70" height="26" rx="4" fill="#8B6FC0"/>
    <rect x="296" y="250" width="62" height="26" rx="4" fill="#F2A65A"/>
    <rect x="380" y="228" width="24" height="76" rx="3" fill="#4A90D9"/>
    <rect x="408" y="236" width="20" height="68" rx="3" fill="#E8734A"/>
    <rect x="432" y="224" width="28" height="80" rx="3" fill="#F59E0B"/>
    <rect x="464" y="232" width="24" height="72" rx="3" fill="#5FA968"/>
  </g>
  <!-- 第三层书脊 -->
  <g>
    <rect x="150" y="340" width="28" height="78" rx="3" fill="#F59E0B"/>
    <rect x="182" y="348" width="22" height="70" rx="3" fill="#8B6FC0"/>
    <rect x="208" y="336" width="26" height="82" rx="3" fill="#4A90D9"/>
    <rect x="238" y="344" width="24" height="74" rx="3" fill="#5FA968"/>
    <rect x="266" y="338" width="20" height="80" rx="3" fill="#E8734A"/>
    <rect x="290" y="346" width="26" height="72" rx="3" fill="#F2A65A"/>
    <rect x="344" y="342" width="24" height="76" rx="3" fill="#5FA968"/>
    <rect x="372" y="350" width="20" height="68" rx="3" fill="#4A90D9"/>
    <rect x="396" y="338" width="28" height="80" rx="3" fill="#E8734A"/>
    <rect x="428" y="346" width="22" height="72" rx="3" fill="#F59E0B"/>
    <rect x="454" y="340" width="26" height="78" rx="3" fill="#8B6FC0"/>
  </g>

  <!-- 小梯子 -->
  <g stroke="#C98F4E" stroke-width="8" stroke-linecap="round">
    <line x1="588" y1="120" x2="560" y2="436"/>
    <line x1="648" y1="120" x2="676" y2="436"/>
    <line x1="581" y1="180" x2="653" y2="180"/>
    <line x1="576" y1="240" x2="658" y2="240"/>
    <line x1="571" y1="300" x2="664" y2="300"/>
    <line x1="566" y1="360" x2="670" y2="360"/>
  </g>

  <!-- 泡泡管理员推车 -->
  <g transform="translate(790,330)">
    <ellipse cx="-6" cy="110" rx="86" ry="9" fill="#E4DACA" opacity="0.8"/>
    <rect x="-56" y="30" width="120" height="52" rx="8" fill="#C98F4E"/>
    <rect x="-48" y="6" width="26" height="26" rx="4" fill="#4A90D9"/>
    <rect x="-18" y="0" width="24" height="32" rx="4" fill="#F59E0B"/>
    <rect x="10" y="8" width="28" height="24" rx="4" fill="#5FA968"/>
    <rect x="42" y="2" width="18" height="30" rx="4" fill="#E8734A"/>
    <circle cx="-34" cy="94" r="14" fill="#3D3229"/><circle cx="-34" cy="94" r="5" fill="#8A7F72"/>
    <circle cx="42" cy="94" r="14" fill="#3D3229"/><circle cx="42" cy="94" r="5" fill="#8A7F72"/>
    <line x1="64" y1="34" x2="88" y2="-14" stroke="#8A7F72" stroke-width="7" stroke-linecap="round"/>
    <!-- 泡泡 -->
    <g transform="translate(-24,-70)">
      <ellipse rx="38" ry="34" fill="#FFFFFF" stroke="#E0D6C6" stroke-width="2.5"/>
      <ellipse cy="-2" rx="24" ry="17" fill="#CFE9F8"/>
      <path d="M -13 -5 q 4.5 -5 9 0" stroke="#2C6E9E" stroke-width="2.4" fill="none" stroke-linecap="round"/>
      <path d="M 4 -5 q 4.5 -5 9 0" stroke="#2C6E9E" stroke-width="2.4" fill="none" stroke-linecap="round"/>
      <path d="M -5 5 q 5 4 10 0" stroke="#2C6E9E" stroke-width="2.2" fill="none" stroke-linecap="round"/>
      <line y1="-34" y2="-48" stroke="#B9AFA0" stroke-width="3" stroke-linecap="round"/>
      <circle cy="-53" r="5.5" fill="#F59E0B"/>
      <circle cx="-44" cy="18" r="8" fill="#FFFFFF" stroke="#E0D6C6" stroke-width="2.5"/>
      <circle cx="44" cy="18" r="8" fill="#FFFFFF" stroke="#E0D6C6" stroke-width="2.5"/>
    </g>
  </g>
  <path d="M 700 90 l 5 -11 l 4 11 l 11 3 l -10 5 l -1 12 l -8 -9 l -12 2 l 7 -9 z" fill="#F7C64B" opacity="0.9"/>
</svg>
