<svg viewBox="0 0 900 500" xmlns="http://www.w3.org/2000/svg" font-family="'PingFang SC','Hiragino Sans GB','Microsoft YaHei','Noto Sans SC',sans-serif">
  <rect width="900" height="500" fill="#FAF6EF"/>
  <ellipse cx="450" cy="456" rx="360" ry="26" fill="#F1E7D6"/>

  <!-- 讲台 -->
  <rect x="480" y="330" width="180" height="126" rx="10" fill="#D9A05B"/>
  <rect x="462" y="312" width="216" height="26" rx="10" fill="#C98F4E"/>

  <!-- 泡泡：戴学士帽演讲 -->
  <g transform="translate(570,262)">
    <ellipse rx="38" ry="34" fill="#FFFFFF" stroke="#E0D6C6" stroke-width="2.5"/>
    <ellipse cy="0" rx="24" ry="17" fill="#CFE9F8"/>
    <path d="M -13 -3 q 4.5 -5 9 0" stroke="#2C6E9E" stroke-width="2.4" fill="none" stroke-linecap="round"/>
    <path d="M 4 -3 q 4.5 -5 9 0" stroke="#2C6E9E" stroke-width="2.4" fill="none" stroke-linecap="round"/>
    <ellipse cx="0" cy="8" rx="4.5" ry="5" fill="#2C6E9E"/>
    <path d="M -42 -26 L 0 -46 L 42 -26 L 0 -10 Z" fill="#3D3229"/>
    <rect x="-26" y="-28" width="52" height="10" rx="4" fill="#3D3229"/>
    <line x1="42" y1="-26" x2="46" y2="-4" stroke="#F59E0B" stroke-width="2.5"/>
    <circle cx="46" cy="0" r="4" fill="#F59E0B"/>
    <circle cx="-48" cy="-16" r="8" fill="#FFFFFF" stroke="#E0D6C6" stroke-width="2.5"/>
    <circle cx="46" cy="14" r="8" fill="#FFFFFF" stroke="#E0D6C6" stroke-width="2.5"/>
  </g>

  <!-- 演讲气泡：书＋小红叉 -->
  <circle cx="640" cy="178" r="7" fill="#FFFFFF" stroke="#E0D6C6" stroke-width="2"/>
  <g transform="translate(716,116)">
    <ellipse rx="76" ry="52" fill="#FFFFFF" stroke="#E0D6C6" stroke-width="2.5"/>
    <path d="M -34 14 L -34 -18 Q -2 -10 -2 -18 L -2 14 Q -18 8 -34 14 Z" fill="#EAF3FB" stroke="#4A90D9" stroke-width="2"/>
    <path d="M -2 14 L -2 -18 Q 30 -26 30 -18 L 30 14 Q 14 8 -2 14 Z" fill="#EAF3FB" stroke="#4A90D9" stroke-width="2"/>
    <path d="M -26 -6 h 18 M -26 2 h 14 M 6 -8 h 18 M 6 0 h 14" stroke="#7FB4D9" stroke-width="2.4" stroke-linecap="round"/>
    <path d="M 40 -34 l 4 -9 l 3 9 l 9 2 l -8 4 l -1 10 l -6 -7 l -10 1 l 6 -7 z" fill="#F7C64B"/>
    <circle cx="54" cy="28" r="13" fill="#E8734A"/>
    <path d="M 48 22 L 60 34 M 60 22 L 48 34" stroke="#FFFFFF" stroke-width="3.2" stroke-linecap="round"/>
  </g>

  <!-- 小悠：台下歪头疑惑 -->
  <g transform="translate(210,436) rotate(-4)">
    <ellipse cx="-11" cy="0" rx="13" ry="6" fill="#3D3229"/>
    <ellipse cx="11" cy="0" rx="13" ry="6" fill="#3D3229"/>
    <rect x="-18" y="-62" width="15" height="60" rx="7" fill="#4C6FB0"/>
    <rect x="3" y="-62" width="15" height="60" rx="7" fill="#4C6FB0"/>
    <rect x="-28" y="-138" width="56" height="84" rx="24" fill="#F7C64B"/>
    <rect x="-42" y="-130" width="14" height="54" rx="7" fill="#F7C64B"/>
    <circle cx="-35" cy="-72" r="7" fill="#FFCFA8"/>
    <path d="M 28 -110 L 40 -140" stroke="#F7C64B" stroke-width="13" stroke-linecap="round"/>
    <circle cx="41" cy="-144" r="7" fill="#FFCFA8"/>
    <g transform="rotate(8)">
      <circle cy="-172" r="34" fill="#FFCFA8"/>
      <path d="M -34 -172 a 34 34 0 0 1 68 0 l 0 8 q -8 -8 -16 -4 q -8 -9 -18 -3 q -10 -8 -18 2 q -8 -5 -16 5 z" fill="#2E2A28"/>
      <circle cx="-12" cy="-163" r="3" fill="#2E2A28"/>
      <circle cx="12" cy="-163" r="3" fill="#2E2A28"/>
      <path d="M -7 -152 q 7 3 14 0" stroke="#2E2A28" stroke-width="2.4" fill="none" stroke-linecap="round"/>
    </g>
  </g>
  <circle cx="290" cy="230" r="26" fill="#FFFFFF" stroke="#E0D6C6" stroke-width="2.5"/>
  <text x="290" y="241" text-anchor="middle" font-size="26" font-weight="700" fill="#4A90D9">?</text>
  <circle cx="262" cy="266" r="6" fill="#FFFFFF" stroke="#E0D6C6" stroke-width="2"/>
</svg>
