<svg viewBox="0 0 960 480" xmlns="http://www.w3.org/2000/svg" font-family="'PingFang SC','Hiragino Sans GB','Microsoft YaHei','Noto Sans SC',sans-serif">
  <rect width="960" height="480" fill="#FAF6EF"/>
  <path d="M 0 400 Q 200 330 420 380 T 960 370 L 960 480 L 0 480 Z" fill="#F1E7D6"/>
  <path d="M 560 384 Q 700 320 860 372" stroke="#E4DACA" stroke-width="0" fill="none"/>
  <ellipse cx="760" cy="330" rx="150" ry="52" fill="#EAE0CE"/>
  <ellipse cx="180" cy="350" rx="130" ry="46" fill="#EAE0CE"/>

  <!-- 路牌 -->
  <rect x="470" y="128" width="16" height="292" rx="7" fill="#C98F4E"/>
  <g>
    <path d="M 486 140 h 168 l 26 22 l -26 22 h -168 z" fill="#EAF4EB" stroke="#5FA968" stroke-width="3"/>
    <circle cx="540" cy="162" r="14" fill="#5FA968"/>
    <path d="M 533 162 l 5 6 l 10 -12" stroke="#FFFFFF" stroke-width="3.4" fill="none" stroke-linecap="round" stroke-linejoin="round"/>
  </g>
  <g>
    <path d="M 470 198 h -168 l -26 22 l 26 22 h 168 z" fill="#FDF3DC" stroke="#F59E0B" stroke-width="3"/>
    <circle cx="416" cy="220" r="14" fill="#F59E0B"/>
    <rect x="413" y="211" width="6" height="12" rx="3" fill="#FFFFFF"/>
    <circle cx="416" cy="228" r="3" fill="#FFFFFF"/>
  </g>
  <g>
    <path d="M 486 256 h 148 l 26 22 l -26 22 h -148 z" fill="#FDEDE4" stroke="#E8734A" stroke-width="3"/>
    <circle cx="536" cy="278" r="14" fill="#E8734A"/>
    <path d="M 530 272 L 542 284 M 542 272 L 530 284" stroke="#FFFFFF" stroke-width="3.4" stroke-linecap="round"/>
  </g>

  <!-- 小悠 -->
  <g transform="translate(250,428)">
    <ellipse cx="-11" cy="0" rx="13" ry="6" fill="#3D3229"/>
    <ellipse cx="11" cy="0" rx="13" ry="6" fill="#3D3229"/>
    <rect x="-18" y="-62" width="15" height="60" rx="7" fill="#4C6FB0"/>
    <rect x="3" y="-62" width="15" height="60" rx="7" fill="#4C6FB0"/>
    <rect x="-28" y="-138" width="56" height="84" rx="24" fill="#F7C64B"/>
    <rect x="-42" y="-130" width="14" height="54" rx="7" fill="#F7C64B"/>
    <circle cx="-35" cy="-72" r="7" fill="#FFCFA8"/>
    <path d="M 28 -120 L 68 -150" stroke="#F7C64B" stroke-width="14" stroke-linecap="round"/>
    <circle cx="72" cy="-153" r="7.5" fill="#FFCFA8"/>
    <circle cy="-172" r="34" fill="#FFCFA8"/>
    <path d="M -34 -172 a 34 34 0 0 1 68 0 l 0 8 q -8 -8 -16 -4 q -8 -9 -18 -3 q -10 -8 -18 2 q -8 -5 -16 5 z" fill="#2E2A28"/>
    <circle cx="-12" cy="-163" r="3" fill="#2E2A28"/>
    <circle cx="12" cy="-163" r="3" fill="#2E2A28"/>
    <path d="M -8 -153 q 8 7 16 0" stroke="#2E2A28" stroke-width="2.4" fill="none" stroke-linecap="round"/>
    <ellipse cx="-22" cy="-155" rx="5" ry="3.4" fill="#F7A98C" opacity="0.55"/>
    <ellipse cx="22" cy="-155" rx="5" ry="3.4" fill="#F7A98C" opacity="0.55"/>
  </g>

  <!-- 泡泡 -->
  <g transform="translate(760,320)">
    <ellipse cx="0" cy="102" rx="42" ry="8" fill="#E4DACA" opacity="0.8"/>
    <ellipse rx="38" ry="34" fill="#FFFFFF" stroke="#E0D6C6" stroke-width="2.5"/>
    <ellipse cy="-2" rx="24" ry="17" fill="#CFE9F8"/>
    <circle cx="-9" cy="-4" r="3" fill="#2C6E9E"/>
    <circle cx="9" cy="-4" r="3" fill="#2C6E9E"/>
    <path d="M -5 6 q 5 4 10 0" stroke="#2C6E9E" stroke-width="2.2" fill="none" stroke-linecap="round"/>
    <line y1="-34" y2="-48" stroke="#B9AFA0" stroke-width="3" stroke-linecap="round"/>
    <circle cy="-53" r="5.5" fill="#F59E0B"/>
    <circle cx="-42" cy="6" r="8" fill="#FFFFFF" stroke="#E0D6C6" stroke-width="2.5"/>
    <circle cx="42" cy="6" r="8" fill="#FFFFFF" stroke="#E0D6C6" stroke-width="2.5"/>
  </g>
  <path d="M 850 160 l 5 -11 l 4 11 l 11 3 l -10 5 l -1 12 l -8 -9 l -12 2 l 7 -9 z" fill="#F7C64B" opacity="0.9"/>
</svg>
