<svg viewBox="0 0 900 440" xmlns="http://www.w3.org/2000/svg" font-family="'PingFang SC','Hiragino Sans GB','Microsoft YaHei','Noto Sans SC',sans-serif">
  <rect width="900" height="440" fill="#FAF6EF"/>
  <ellipse cx="450" cy="404" rx="360" ry="22" fill="#F1E7D6"/>

  <!-- 发言稿 -->
  <g transform="translate(430,220) rotate(-4)">
    <rect x="-90" y="-110" width="180" height="220" rx="10" fill="#FFFFFF" stroke="#E0D6C6" stroke-width="3"/>
    <path d="M -66 -76 h 130 M -66 -48 h 110 M -66 -20 h 124 M -66 8 h 96 M -66 36 h 118 M -66 64 h 84" stroke="#DCD2C0" stroke-width="4" stroke-linecap="round"/>
    <path d="M -66 -48 h 110" stroke="#F2A65A" stroke-width="4" stroke-linecap="round"/>
    <circle cx="58" cy="-44" r="12" fill="#E8734A"/>
    <path d="M 53 -49 L 63 -39 M 63 -49 L 53 -39" stroke="#FFFFFF" stroke-width="2.8" stroke-linecap="round"/>
  </g>

  <!-- 小悠：举放大镜核查 -->
  <g transform="translate(180,384)">
    <ellipse cx="-11" cy="0" rx="13" ry="6" fill="#3D3229"/>
    <ellipse cx="11" cy="0" rx="13" ry="6" fill="#3D3229"/>
    <rect x="-18" y="-62" width="15" height="60" rx="7" fill="#4C6FB0"/>
    <rect x="3" y="-62" width="15" height="60" rx="7" fill="#4C6FB0"/>
    <rect x="-28" y="-138" width="56" height="84" rx="24" fill="#F7C64B"/>
    <rect x="-42" y="-130" width="14" height="54" rx="7" fill="#F7C64B"/>
    <circle cx="-35" cy="-72" r="7" fill="#FFCFA8"/>
    <path d="M 28 -116 L 76 -128" stroke="#F7C64B" stroke-width="14" stroke-linecap="round"/>
    <circle cx="82" cy="-130" r="7.5" fill="#FFCFA8"/>
    <circle cx="126" cy="-142" r="26" fill="#DFF0FB" opacity="0.75" stroke="#4A90D9" stroke-width="5"/>
    <line x1="104" y1="-134" x2="90" y2="-130" stroke="#C77E3E" stroke-width="7" stroke-linecap="round"/>
    <circle cy="-172" r="34" fill="#FFCFA8"/>
    <path d="M -34 -172 a 34 34 0 0 1 68 0 l 0 8 q -8 -8 -16 -4 q -8 -9 -18 -3 q -10 -8 -18 2 q -8 -5 -16 5 z" fill="#2E2A28"/>
    <circle cx="-12" cy="-163" r="3" fill="#2E2A28"/>
    <circle cx="12" cy="-163" r="3" fill="#2E2A28"/>
    <path d="M -7 -152 q 7 4 14 0" stroke="#2E2A28" stroke-width="2.4" fill="none" stroke-linecap="round"/>
  </g>

  <!-- 泡泡：抱手冒汗 -->
  <g transform="translate(690,300)">
    <ellipse cx="0" cy="118" rx="42" ry="8" fill="#E4DACA" opacity="0.8"/>
    <ellipse rx="38" ry="34" fill="#FFFFFF" stroke="#E0D6C6" stroke-width="2.5"/>
    <ellipse cy="-2" rx="24" ry="17" fill="#CFE9F8"/>
    <path d="M -13 -7 q 4.5 5 9 0" stroke="#2C6E9E" stroke-width="2.4" fill="none" stroke-linecap="round"/>
    <path d="M 4 -7 q 4.5 5 9 0" stroke="#2C6E9E" stroke-width="2.4" fill="none" stroke-linecap="round"/>
    <path d="M -6 6 q 6 3 12 0" stroke="#2C6E9E" stroke-width="2.2" fill="none" stroke-linecap="round"/>
    <line y1="-34" y2="-48" stroke="#B9AFA0" stroke-width="3" stroke-linecap="round"/>
    <circle cy="-53" r="5.5" fill="#F59E0B"/>
    <circle cx="-30" cy="16" r="8" fill="#FFFFFF" stroke="#E0D6C6" stroke-width="2.5"/>
    <circle cx="30" cy="16" r="8" fill="#FFFFFF" stroke="#E0D6C6" stroke-width="2.5"/>
    <path d="M 36 -52 c 0 -8 9 -15 9 -4 c 0 7 -9 11 -9 4 z" fill="#7FC3E8"/>
    <path d="M 50 -34 c 0 -6 7 -12 7 -3 c 0 5 -7 9 -7 3 z" fill="#7FC3E8"/>
  </g>
</svg>
