<svg viewBox="0 0 960 430" xmlns="http://www.w3.org/2000/svg" font-family="'PingFang SC','Hiragino Sans GB','Microsoft YaHei','Noto Sans SC',sans-serif">
  <rect width="960" height="430" fill="#FAF6EF"/>

  <text x="480" y="48" text-anchor="middle" font-size="26" font-weight="700" fill="#3D3229">你的一天，藏着多少 AI？</text>
  <text x="480" y="76" text-anchor="middle" font-size="14" fill="#9A8F80">示意图 1-1 ｜ 一位普通人的 24 小时 AI 时刻</text>

  <line x1="70" y1="225" x2="890" y2="225" stroke="#E6DCC9" stroke-width="5" stroke-linecap="round"/>

  <!-- 07:00 人脸解锁（上） -->
  <g transform="translate(120,225)">
    <line y1="-24" y2="-46" stroke="#F59E0B" stroke-width="2" opacity="0.5"/>
    <circle r="24" fill="#F59E0B"/>
    <circle cx="-7" cy="-4" r="2.4" fill="#FFFFFF"/>
    <circle cx="7" cy="-4" r="2.4" fill="#FFFFFF"/>
    <path d="M -8 4 Q 0 12 8 4" stroke="#FFFFFF" stroke-width="2.6" fill="none" stroke-linecap="round"/>
    <text y="-104" text-anchor="middle" font-size="16" font-weight="700" fill="#F59E0B">07:00</text>
    <text y="-80" text-anchor="middle" font-size="15" font-weight="600" fill="#3D3229">人脸解锁</text>
    <text y="-58" text-anchor="middle" font-size="13" fill="#8A7F72">手机一眼认出你</text>
  </g>

  <!-- 08:30 地图导航（下） -->
  <g transform="translate(270,225)">
    <line y1="24" y2="44" stroke="#4A90D9" stroke-width="2" opacity="0.5"/>
    <circle r="24" fill="#4A90D9"/>
    <path d="M 0 12 C 0 12 -10 2 -10 -4 A 10 10 0 0 1 10 -4 C 10 2 0 12 0 12 Z" fill="#FFFFFF"/>
    <circle cy="-4" r="3.4" fill="#4A90D9"/>
    <text y="62" text-anchor="middle" font-size="16" font-weight="700" fill="#4A90D9">08:30</text>
    <text y="86" text-anchor="middle" font-size="15" font-weight="600" fill="#3D3229">地图导航</text>
    <text y="108" text-anchor="middle" font-size="13" fill="#8A7F72">预测哪条路最不堵</text>
  </g>

  <!-- 12:00 外卖推荐（上） -->
  <g transform="translate(420,225)">
    <line y1="-24" y2="-46" stroke="#5FA968" stroke-width="2" opacity="0.5"/>
    <circle r="24" fill="#5FA968"/>
    <g transform="translate(0,2)">
      <path d="M -11 -1 A 11 11 0 0 0 11 -1 Z" fill="#FFFFFF"/>
      <rect x="-6" y="10" width="12" height="2.6" rx="1.3" fill="#FFFFFF"/>
      <path d="M -4 -6 q 2.5 -3 0 -6" stroke="#FFFFFF" stroke-width="2" fill="none" stroke-linecap="round"/>
      <path d="M 4 -6 q 2.5 -3 0 -6" stroke="#FFFFFF" stroke-width="2" fill="none" stroke-linecap="round"/>
    </g>
    <text y="-104" text-anchor="middle" font-size="16" font-weight="700" fill="#5FA968">12:00</text>
    <text y="-80" text-anchor="middle" font-size="15" font-weight="600" fill="#3D3229">外卖推荐</text>
    <text y="-58" text-anchor="middle" font-size="13" fill="#8A7F72">猜中你想吃什么</text>
  </g>

  <!-- 15:00 输入法联想（下） -->
  <g transform="translate(570,225)">
    <line y1="24" y2="44" stroke="#E8734A" stroke-width="2" opacity="0.5"/>
    <circle r="24" fill="#E8734A"/>
    <rect x="-13" y="-8" width="26" height="16" rx="8" fill="#FFFFFF"/>
    <circle cx="-6" r="2.2" fill="#E8734A"/>
    <circle r="2.2" fill="#E8734A"/>
    <circle cx="6" r="2.2" fill="#E8734A"/>
    <text y="62" text-anchor="middle" font-size="16" font-weight="700" fill="#E8734A">15:00</text>
    <text y="86" text-anchor="middle" font-size="15" font-weight="600" fill="#3D3229">输入法联想</text>
    <text y="108" text-anchor="middle" font-size="13" fill="#8A7F72">猜你的下一个词</text>
  </g>

  <!-- 20:00 短视频推送（上） -->
  <g transform="translate(720,225)">
    <line y1="-24" y2="-46" stroke="#8B6FC0" stroke-width="2" opacity="0.5"/>
    <circle r="24" fill="#8B6FC0"/>
    <polygon points="-6,-9 10,0 -6,9" fill="#FFFFFF"/>
    <text y="-104" text-anchor="middle" font-size="16" font-weight="700" fill="#8B6FC0">20:00</text>
    <text y="-80" text-anchor="middle" font-size="15" font-weight="600" fill="#3D3229">短视频推送</text>
    <text y="-58" text-anchor="middle" font-size="13" fill="#8A7F72">越刷越懂你</text>
  </g>

  <!-- 22:30 相册整理（下） -->
  <g transform="translate(870,225)">
    <line y1="24" y2="44" stroke="#3AA6A0" stroke-width="2" opacity="0.5"/>
    <circle r="24" fill="#3AA6A0"/>
    <rect x="-12" y="-9" width="24" height="18" rx="3" fill="none" stroke="#FFFFFF" stroke-width="2.4"/>
    <circle cx="-5" cy="-3.5" r="2" fill="#FFFFFF"/>
    <path d="M -9 5 L -3 -1 L 1 3 L 5 -2 L 9 5" stroke="#FFFFFF" stroke-width="2.2" fill="none" stroke-linejoin="round" stroke-linecap="round"/>
    <text y="62" text-anchor="middle" font-size="16" font-weight="700" fill="#3AA6A0">22:30</text>
    <text y="86" text-anchor="middle" font-size="15" font-weight="600" fill="#3D3229">相册整理</text>
    <text y="108" text-anchor="middle" font-size="13" fill="#8A7F72">认出照片里的每个人</text>
  </g>

  <text x="480" y="398" text-anchor="middle" font-size="13.5" fill="#9A8F80">……这还只是冰山一角：垃圾邮件过滤、拍照美化、语音助手、实时翻译，都有 AI 在幕后工作</text>
</svg>
