<svg viewBox="0 0 900 470" xmlns="http://www.w3.org/2000/svg" font-family="'PingFang SC','Hiragino Sans GB','Microsoft YaHei','Noto Sans SC',sans-serif">
  <rect width="900" height="470" fill="#FAF6EF"/>

  <!-- 天际与星 -->
  <path d="M 620 132 l 5 -11 l 4 11 l 11 3 l -10 5 l -1 12 l -8 -9 l -12 2 l 7 -9 z" fill="#F7C64B" opacity="0.9"/>
  <path d="M 760 90 l 4 -9 l 3 9 l 9 2 l -8 4 l -1 10 l -6 -7 l -10 1 l 6 -7 z" fill="#F2A65A" opacity="0.8"/>
  <circle cx="700" cy="170" r="3.5" fill="#F7C64B"/>

  <!-- 远处城市轮廓 -->
  <g transform="translate(690,238)" opacity="0.55">
    <rect x="-20" y="-30" width="22" height="30" rx="3" fill="#C9BCA6"/>
    <rect x="8" y="-46" width="18" height="46" rx="3" fill="#B9AFA0"/>
    <rect x="32" y="-24" width="20" height="24" rx="3" fill="#C9BCA6"/>
    <rect x="58" y="-36" width="16" height="36" rx="3" fill="#DCD2C0"/>
  </g>

  <!-- 山坡 -->
  <path d="M 0 330 Q 260 250 520 300 Q 720 336 900 300 L 900 470 L 0 470 Z" fill="#F1E7D6"/>
  <path d="M 0 420 Q 240 360 520 408 T 900 400 L 900 470 L 0 470 Z" fill="#EAE0CE"/>

  <!-- 立式望远镜 -->
  <g transform="translate(430,300)">
    <line x1="0" y1="0" x2="-34" y2="84" stroke="#8A7F72" stroke-width="7" stroke-linecap="round"/>
    <line x1="0" y1="0" x2="34" y2="84" stroke="#8A7F72" stroke-width="7" stroke-linecap="round"/>
    <line x1="0" y1="0" x2="0" y2="88" stroke="#8A7F72" stroke-width="6" stroke-linecap="round"/>
    <g transform="rotate(-22)">
      <rect x="-46" y="-16" width="110" height="32" rx="14" fill="#4A90D9"/>
      <rect x="52" y="-20" width="26" height="40" rx="10" fill="#2C6E9E"/>
      <rect x="-58" y="-11" width="16" height="22" rx="8" fill="#2C6E9E"/>
    </g>
  </g>

  <!-- 小悠：踮脚看望远镜 -->
  <g transform="translate(360,398)">
    <ellipse cx="-10" cy="0" rx="12" ry="5.5" fill="#3D3229"/>
    <ellipse cx="12" cy="0" rx="12" ry="5.5" fill="#3D3229"/>
    <rect x="-17" y="-58" width="14" height="57" rx="6" fill="#4C6FB0"/>
    <rect x="4" y="-58" width="14" height="57" rx="6" fill="#4C6FB0"/>
    <rect x="-26" y="-128" width="52" height="78" rx="22" fill="#F7C64B"/>
    <path d="M 26 -110 L 56 -92" stroke="#F7C64B" stroke-width="12" stroke-linecap="round"/>
    <circle cx="60" cy="-89" r="6.5" fill="#FFCFA8"/>
    <rect x="-39" y="-120" width="13" height="50" rx="6" fill="#F7C64B"/>
    <circle cx="-32" cy="-66" r="6.5" fill="#FFCFA8"/>
    <circle cy="-158" r="31" fill="#FFCFA8"/>
    <path d="M -31 -158 a 31 31 0 0 1 62 0 l 0 7 q -7 -7 -14 -3 q -8 -8 -16 -3 q -9 -7 -17 2 q -7 -4 -15 4 z" fill="#2E2A28"/>
    <path d="M -14 -150 q 4.5 -3.5 8 0" stroke="#2E2A28" stroke-width="2.4" fill="none" stroke-linecap="round"/>
    <path d="M 7 -150 q 4.5 -3.5 8 0" stroke="#2E2A28" stroke-width="2.4" fill="none" stroke-linecap="round"/>
    <path d="M -7 -140 q 7.5 6.5 15 0" stroke="#2E2A28" stroke-width="2.2" fill="none" stroke-linecap="round"/>
    <ellipse cx="-20" cy="-142" rx="4.4" ry="3" fill="#F7A98C" opacity="0.55"/>
    <ellipse cx="20" cy="-142" rx="4.4" ry="3" fill="#F7A98C" opacity="0.55"/>
  </g>

  <!-- 泡泡：指向远方 -->
  <g transform="translate(560,250)">
    <ellipse rx="34" ry="30" fill="#FFFFFF" stroke="#E0D6C6" stroke-width="2.5"/>
    <ellipse cy="-2" rx="20" ry="15" fill="#CFE9F8"/>
    <path d="M -11 -5 q 4 -4.5 8 0" stroke="#2C6E9E" stroke-width="2.3" fill="none" stroke-linecap="round"/>
    <path d="M 4 -5 q 4 -4.5 8 0" stroke="#2C6E9E" stroke-width="2.3" fill="none" stroke-linecap="round"/>
    <path d="M -4 4 q 4 3.5 8 0" stroke="#2C6E9E" stroke-width="2.1" fill="none" stroke-linecap="round"/>
    <line y1="-30" y2="-43" stroke="#B9AFA0" stroke-width="3" stroke-linecap="round"/>
    <circle cy="-48" r="4.8" fill="#F59E0B"/>
    <g transform="translate(38,-16)">
      <circle r="7.5" fill="#FFFFFF" stroke="#E0D6C6" stroke-width="2.5"/>
      <line x1="6" y1="-4" x2="42" y2="-24" stroke="#E0D6C6" stroke-width="6" stroke-linecap="round"/>
      <line x1="6" y1="-4" x2="42" y2="-24" stroke="#FFFFFF" stroke-width="3.4" stroke-linecap="round"/>
    </g>
    <circle cx="-38" cy="8" r="7.5" fill="#FFFFFF" stroke="#E0D6C6" stroke-width="2.5"/>
  </g>
</svg>
