<svg viewBox="0 0 900 480" xmlns="http://www.w3.org/2000/svg" font-family="'PingFang SC','Hiragino Sans GB','Microsoft YaHei','Noto Sans SC',sans-serif">
  <rect width="900" height="480" fill="#FAF6EF"/>
  <rect x="0" y="0" width="900" height="380" fill="#F5EDDD"/>
  <rect x="0" y="380" width="900" height="100" fill="#EAE0CE"/>
  <line x1="0" y1="380" x2="900" y2="380" stroke="#DCD2C0" stroke-width="3"/>

  <!-- 门1（最远最小） -->
  <g transform="translate(180,240) scale(0.72)">
    <path d="M -120 140 L 0 140 L 0 -140 L -60 -120 Z" fill="#FFF3D6" opacity="0.75"/>
    <rect x="-14" y="-150" width="120" height="290" rx="8" fill="#B98449"/>
    <rect x="-2" y="-140" width="98" height="270" rx="6" fill="#C98F4E"/>
    <rect x="10" y="-120" width="74" height="90" rx="6" fill="#D9A05B"/>
    <rect x="10" y="-14" width="74" height="120" rx="6" fill="#D9A05B"/>
    <circle cx="18" cy="24" r="7" fill="#F7C64B"/>
    <rect x="26" y="-102" width="44" height="38" rx="6" fill="#FFFFFF" stroke="#E0D6C6" stroke-width="2.5"/>
    <text x="48" y="-74" text-anchor="middle" font-size="26" font-weight="800" fill="#E8905A">1</text>
  </g>

  <!-- 门2（中） -->
  <g transform="translate(420,252) scale(0.86)">
    <path d="M -120 140 L 0 140 L 0 -140 L -60 -120 Z" fill="#FFF3D6" opacity="0.8"/>
    <rect x="-14" y="-150" width="120" height="290" rx="8" fill="#B98449"/>
    <rect x="-2" y="-140" width="98" height="270" rx="6" fill="#C98F4E"/>
    <rect x="10" y="-120" width="74" height="90" rx="6" fill="#D9A05B"/>
    <rect x="10" y="-14" width="74" height="120" rx="6" fill="#D9A05B"/>
    <circle cx="18" cy="24" r="7" fill="#F7C64B"/>
    <rect x="26" y="-102" width="44" height="38" rx="6" fill="#FFFFFF" stroke="#E0D6C6" stroke-width="2.5"/>
    <text x="48" y="-74" text-anchor="middle" font-size="26" font-weight="800" fill="#E8905A">2</text>
  </g>

  <!-- 门3（近） -->
  <g transform="translate(650,264)">
    <path d="M -120 140 L 0 140 L 0 -140 L -60 -120 Z" fill="#FFF3D6" opacity="0.85"/>
    <rect x="-14" y="-150" width="120" height="290" rx="8" fill="#B98449"/>
    <rect x="-2" y="-140" width="98" height="270" rx="6" fill="#C98F4E"/>
    <rect x="10" y="-120" width="74" height="90" rx="6" fill="#D9A05B"/>
    <rect x="10" y="-14" width="74" height="120" rx="6" fill="#D9A05B"/>
    <circle cx="18" cy="24" r="7" fill="#F7C64B"/>
    <rect x="26" y="-102" width="44" height="38" rx="6" fill="#FFFFFF" stroke="#E0D6C6" stroke-width="2.5"/>
    <text x="48" y="-74" text-anchor="middle" font-size="26" font-weight="800" fill="#E8905A">3</text>
  </g>

  <!-- 小悠：走廊尽头回望 -->
  <g transform="translate(120,430)">
    <ellipse cx="-11" cy="0" rx="13" ry="6" fill="#3D3229"/>
    <ellipse cx="11" cy="0" rx="13" ry="6" fill="#3D3229"/>
    <rect x="-18" y="-62" width="15" height="60" rx="7" fill="#4C6FB0"/>
    <rect x="3" y="-62" width="15" height="60" rx="7" fill="#4C6FB0"/>
    <rect x="-28" y="-138" width="56" height="84" rx="24" fill="#F7C64B"/>
    <rect x="28" y="-130" width="14" height="54" rx="7" fill="#F7C64B"/>
    <circle cx="35" cy="-72" r="7" fill="#FFCFA8"/>
    <rect x="-42" y="-130" width="14" height="54" rx="7" fill="#F7C64B"/>
    <circle cx="-35" cy="-72" r="7" fill="#FFCFA8"/>
    <circle cy="-172" r="34" fill="#FFCFA8"/>
    <path d="M -34 -172 a 34 34 0 0 1 68 0 l 0 8 q -8 -8 -16 -4 q -8 -9 -18 -3 q -10 -8 -18 2 q -8 -5 -16 5 z" fill="#2E2A28"/>
    <path d="M -16 -164 q 5 -4 9 0" stroke="#2E2A28" stroke-width="2.6" fill="none" stroke-linecap="round"/>
    <path d="M 7 -164 q 5 -4 9 0" stroke="#2E2A28" stroke-width="2.6" fill="none" stroke-linecap="round"/>
    <path d="M -9 -153 q 9 8 18 0" stroke="#2E2A28" stroke-width="2.4" fill="none" stroke-linecap="round"/>
    <ellipse cx="-22" cy="-155" rx="5" ry="3.4" fill="#F7A98C" opacity="0.55"/>
    <ellipse cx="22" cy="-155" rx="5" ry="3.4" fill="#F7A98C" opacity="0.55"/>
  </g>

  <!-- 泡泡：依偎在旁 -->
  <g transform="translate(226,380)">
    <ellipse cx="0" cy="52" rx="38" ry="7" fill="#E0D5C2" opacity="0.8"/>
    <ellipse rx="34" ry="30" fill="#FFFFFF" stroke="#E0D6C6" stroke-width="2.5"/>
    <ellipse cy="-2" rx="20" ry="15" fill="#CFE9F8"/>
    <path d="M -11 -5 q 4 -4.5 8 0" stroke="#2C6E9E" stroke-width="2.3" fill="none" stroke-linecap="round"/>
    <path d="M 4 -5 q 4 -4.5 8 0" stroke="#2C6E9E" stroke-width="2.3" fill="none" stroke-linecap="round"/>
    <path d="M -4 4 q 4 3.5 8 0" stroke="#2C6E9E" stroke-width="2.1" fill="none" stroke-linecap="round"/>
    <line y1="-30" y2="-43" stroke="#B9AFA0" stroke-width="3" stroke-linecap="round"/>
    <circle cy="-48" r="4.8" fill="#F59E0B"/>
    <circle cx="-38" cy="4" r="7.5" fill="#FFFFFF" stroke="#E0D6C6" stroke-width="2.5"/>
    <circle cx="38" cy="4" r="7.5" fill="#FFFFFF" stroke="#E0D6C6" stroke-width="2.5"/>
  </g>

  <path d="M 320 80 l 5 -11 l 4 11 l 11 3 l -10 5 l -1 12 l -8 -9 l -12 2 l 7 -9 z" fill="#F7C64B" opacity="0.8"/>
  <path d="M 780 60 l 4 -9 l 3 9 l 9 2 l -8 4 l -1 10 l -6 -7 l -10 1 l 6 -7 z" fill="#F2A65A" opacity="0.7"/>
</svg>
