<svg viewBox="0 0 900 470" xmlns="http://www.w3.org/2000/svg" font-family="'PingFang SC','Hiragino Sans GB','Microsoft YaHei','Noto Sans SC',sans-serif">
  <rect width="900" height="470" fill="#FAF6EF"/>
  <ellipse cx="450" cy="434" rx="380" ry="22" fill="#F1E7D6"/>

  <!-- 圆桌 -->
  <ellipse cx="450" cy="310" rx="230" ry="64" fill="#D9A05B"/>
  <ellipse cx="450" cy="298" rx="230" ry="60" fill="#E9C089"/>
  <rect x="330" y="352" width="18" height="60" rx="8" fill="#C98F4E"/>
  <rect x="552" y="352" width="18" height="60" rx="8" fill="#C98F4E"/>

  <!-- 中央发光盒子 -->
  <g transform="translate(450,272)">
    <circle r="44" fill="#FDF3DC" opacity="0.7"/>
    <rect x="-24" y="-22" width="48" height="40" rx="8" fill="#F59E0B"/>
    <rect x="-24" y="-22" width="48" height="14" rx="7" fill="#F2C48A"/>
    <circle cy="2" r="7" fill="#FFF7E6"/>
    <path d="M -34 -32 l -7 -7 M 34 -32 l 7 -7 M 0 -34 v -10" stroke="#F2C48A" stroke-width="3" stroke-linecap="round"/>
  </g>

  <!-- 人物1：创作者（举画笔，橙） -->
  <g transform="translate(230,262)">
    <rect x="-24" y="-56" width="48" height="66" rx="18" fill="#E8734A"/>
    <circle cy="-82" r="26" fill="#FFCFA8"/>
    <path d="M -26 -82 a 26 26 0 0 1 52 0 l 0 5 q -13 -9 -26 -5 q -13 -6 -26 0 z" fill="#6E4A32"/>
    <circle cx="-8" cy="-76" r="2.6" fill="#2E2A28"/><circle cx="9" cy="-76" r="2.6" fill="#2E2A28"/>
    <path d="M -4 -67 q 5 4 10 0" stroke="#2E2A28" stroke-width="2.2" fill="none" stroke-linecap="round"/>
    <path d="M 24 -40 L 48 -66" stroke="#E8734A" stroke-width="11" stroke-linecap="round"/>
    <circle cx="52" cy="-70" r="6" fill="#FFCFA8"/>
    <g transform="translate(60,-84) rotate(-28)">
      <rect x="-3.5" y="-16" width="7" height="24" rx="3" fill="#8B6FC0"/>
      <path d="M -3.5 -16 L 0 -25 L 3.5 -16 Z" fill="#F2A65A"/>
    </g>
  </g>

  <!-- 人物2：上班族（公文包，蓝） -->
  <g transform="translate(378,232)">
    <rect x="-24" y="-56" width="48" height="66" rx="18" fill="#4A90D9"/>
    <circle cy="-82" r="26" fill="#FFCFA8"/>
    <path d="M -26 -82 a 26 26 0 0 1 52 0 l 0 3 q -8 -8 -15 -4 q -8 -8 -16 -2 q -9 -7 -21 3 z" fill="#2E2A28"/>
    <circle cx="-8" cy="-76" r="2.6" fill="#2E2A28"/><circle cx="9" cy="-76" r="2.6" fill="#2E2A28"/>
    <path d="M -4 -67 q 5 4 10 0" stroke="#2E2A28" stroke-width="2.2" fill="none" stroke-linecap="round"/>
    <g transform="translate(-42,-16)">
      <rect x="-16" y="-11" width="32" height="24" rx="5" fill="#8A6543"/>
      <path d="M -6 -11 q 0 -8 6 -8 q 6 0 6 8" stroke="#6E4A32" stroke-width="3.5" fill="none"/>
    </g>
  </g>

  <!-- 人物3：家长抱孩子（绿） -->
  <g transform="translate(524,232)">
    <rect x="-24" y="-56" width="48" height="66" rx="18" fill="#5FA968"/>
    <circle cy="-82" r="26" fill="#FFCFA8"/>
    <path d="M -26 -82 a 26 26 0 0 1 52 0 l 0 6 q -12 -10 -26 -6 q -14 -5 -26 0 z" fill="#4A3826"/>
    <circle cx="-8" cy="-76" r="2.6" fill="#2E2A28"/><circle cx="9" cy="-76" r="2.6" fill="#2E2A28"/>
    <path d="M -4 -67 q 5 4 10 0" stroke="#2E2A28" stroke-width="2.2" fill="none" stroke-linecap="round"/>
    <g transform="translate(34,-26)">
      <circle cy="-8" r="13" fill="#FFCFA8"/>
      <path d="M -13 -8 a 13 13 0 0 1 26 0 l 0 2 q -13 -7 -26 0 z" fill="#2E2A28"/>
      <rect x="-11" y="4" width="22" height="22" rx="9" fill="#F7C64B"/>
      <circle cx="-4" cy="-6" r="1.8" fill="#2E2A28"/><circle cx="5" cy="-6" r="1.8" fill="#2E2A28"/>
    </g>
  </g>

  <!-- 人物4：学者（眼镜，紫） -->
  <g transform="translate(672,262)">
    <rect x="-24" y="-56" width="48" height="66" rx="18" fill="#8B6FC0"/>
    <circle cy="-82" r="26" fill="#FFCFA8"/>
    <path d="M -26 -82 a 26 26 0 0 1 52 0 l 0 2 q -26 -10 -52 0 z" fill="#B9AFA0"/>
    <circle cx="-9" cy="-76" r="7" fill="none" stroke="#3D3229" stroke-width="2.2"/>
    <circle cx="10" cy="-76" r="7" fill="none" stroke="#3D3229" stroke-width="2.2"/>
    <line x1="-2" y1="-76" x2="3" y2="-76" stroke="#3D3229" stroke-width="2.2"/>
    <circle cx="-9" cy="-76" r="2.2" fill="#2E2A28"/><circle cx="10" cy="-76" r="2.2" fill="#2E2A28"/>
    <path d="M -4 -66 q 5 3 10 0" stroke="#2E2A28" stroke-width="2.2" fill="none" stroke-linecap="round"/>
  </g>

  <!-- 泡泡：记录 -->
  <g transform="translate(800,330)">
    <ellipse rx="32" ry="28" fill="#FFFFFF" stroke="#E0D6C6" stroke-width="2.5"/>
    <ellipse cy="-2" rx="19" ry="14" fill="#CFE9F8"/>
    <path d="M -10 -4 q 3.5 -4 7 0" stroke="#2C6E9E" stroke-width="2.2" fill="none" stroke-linecap="round"/>
    <path d="M 3 -4 q 3.5 -4 7 0" stroke="#2C6E9E" stroke-width="2.2" fill="none" stroke-linecap="round"/>
    <path d="M -4 5 q 4 3 8 0" stroke="#2C6E9E" stroke-width="2" fill="none" stroke-linecap="round"/>
    <line y1="-28" y2="-40" stroke="#B9AFA0" stroke-width="3" stroke-linecap="round"/>
    <circle cy="-45" r="4.5" fill="#F59E0B"/>
    <g transform="translate(-44,10) rotate(-8)">
      <rect x="-18" y="-14" width="36" height="28" rx="4" fill="#FFFFFF" stroke="#E0D6C6" stroke-width="2.5"/>
      <path d="M -10 -5 h 20 M -10 4 h 14" stroke="#DCD2C0" stroke-width="2.6" stroke-linecap="round"/>
    </g>
  </g>

  <!-- 小悠：稍远处倾听 -->
  <g transform="translate(96,392)">
    <ellipse cx="-10" cy="0" rx="12" ry="5.5" fill="#3D3229"/>
    <ellipse cx="10" cy="0" rx="12" ry="5.5" fill="#3D3229"/>
    <rect x="-16" y="-56" width="14" height="55" rx="6" fill="#4C6FB0"/>
    <rect x="3" y="-56" width="14" height="55" rx="6" fill="#4C6FB0"/>
    <rect x="-25" y="-124" width="50" height="76" rx="22" fill="#F7C64B"/>
    <circle cy="-154" r="30" fill="#FFCFA8"/>
    <path d="M -30 -154 a 30 30 0 0 1 60 0 l 0 7 q -7 -7 -14 -3 q -7 -8 -16 -3 q -9 -7 -16 2 q -7 -4 -14 4 z" fill="#2E2A28"/>
    <circle cx="-10" cy="-146" r="2.8" fill="#2E2A28"/>
    <circle cx="11" cy="-146" r="2.8" fill="#2E2A28"/>
    <path d="M -6 -136 q 7 6 14 0" stroke="#2E2A28" stroke-width="2.2" fill="none" stroke-linecap="round"/>
    <ellipse cx="-19" cy="-138" rx="4.2" ry="3" fill="#F7A98C" opacity="0.55"/>
    <ellipse cx="20" cy="-138" rx="4.2" ry="3" fill="#F7A98C" opacity="0.55"/>
  </g>
</svg>
