<svg viewBox="0 0 900 460" xmlns="http://www.w3.org/2000/svg" font-family="'PingFang SC','Hiragino Sans GB','Microsoft YaHei','Noto Sans SC',sans-serif">
  <rect width="900" height="460" fill="#FAF6EF"/>
  <ellipse cx="450" cy="424" rx="380" ry="22" fill="#F1E7D6"/>

  <!-- 背包 -->
  <g transform="translate(450,330)">
    <rect x="-110" y="-90" width="220" height="160" rx="30" fill="#E8734A"/>
    <path d="M -110 -50 q 110 -40 220 0 l 0 -20 q -110 -44 -220 0 z" fill="#C95F3A"/>
    <rect x="-70" y="-6" width="140" height="76" rx="16" fill="#F2A65A"/>
    <rect x="-26" y="26" width="52" height="16" rx="8" fill="#C95F3A"/>
    <path d="M -110 -70 q -34 10 -28 54" stroke="#C95F3A" stroke-width="12" fill="none" stroke-linecap="round"/>
    <path d="M 110 -70 q 34 10 28 54" stroke="#C95F3A" stroke-width="12" fill="none" stroke-linecap="round"/>
    <path d="M -70 -96 a 70 34 0 0 1 140 0" stroke="#C95F3A" stroke-width="13" fill="none"/>
  </g>

  <!-- 已放入：指南针（露出包口） -->
  <g transform="translate(400,236)">
    <circle r="24" fill="#FFFFFF" stroke="#4A90D9" stroke-width="4"/>
    <path d="M 0 -13 L 6 4 L 0 1 L -6 4 Z" fill="#E8734A"/>
    <circle r="3" fill="#3D3229"/>
    <path d="M -32 -14 l -6 -8 M 34 -12 l 7 -7" stroke="#F7C64B" stroke-width="3" stroke-linecap="round"/>
  </g>

  <!-- 小悠：放入爱心 -->
  <g transform="translate(230,416)">
    <ellipse cx="-11" cy="0" rx="13" ry="6" fill="#3D3229"/>
    <ellipse cx="11" cy="0" rx="13" ry="6" fill="#3D3229"/>
    <rect x="-18" y="-62" width="15" height="60" rx="7" fill="#4C6FB0"/>
    <rect x="3" y="-62" width="15" height="60" rx="7" fill="#4C6FB0"/>
    <rect x="-28" y="-138" width="56" height="84" rx="24" fill="#F7C64B"/>
    <rect x="-42" y="-130" width="14" height="54" rx="7" fill="#F7C64B"/>
    <circle cx="-35" cy="-72" r="7" fill="#FFCFA8"/>
    <path d="M 28 -126 L 86 -152" stroke="#F7C64B" stroke-width="14" stroke-linecap="round"/>
    <circle cx="92" cy="-155" r="7.5" fill="#FFCFA8"/>
    <g transform="translate(116,-168)">
      <path d="M 0 8 q -18 -14 -10 -26 q 6 -8 10 -1 q 4 -7 10 1 q 8 12 -10 26 z" fill="#E8734A"/>
      <path d="M -18 -22 l -6 -6 M 18 -22 l 6 -6 M 0 -28 v -8" stroke="#F2C48A" stroke-width="2.5" stroke-linecap="round"/>
    </g>
    <circle cy="-172" r="34" fill="#FFCFA8"/>
    <path d="M -34 -172 a 34 34 0 0 1 68 0 l 0 8 q -8 -8 -16 -4 q -8 -9 -18 -3 q -10 -8 -18 2 q -8 -5 -16 5 z" fill="#2E2A28"/>
    <path d="M -16 -164 q 5 -4 9 0" stroke="#2E2A28" stroke-width="2.6" fill="none" stroke-linecap="round"/>
    <path d="M 7 -164 q 5 -4 9 0" stroke="#2E2A28" stroke-width="2.6" fill="none" stroke-linecap="round"/>
    <path d="M -9 -153 q 9 8 18 0" stroke="#2E2A28" stroke-width="2.4" fill="none" stroke-linecap="round"/>
    <ellipse cx="-22" cy="-155" rx="5" ry="3.4" fill="#F7A98C" opacity="0.55"/>
    <ellipse cx="22" cy="-155" rx="5" ry="3.4" fill="#F7A98C" opacity="0.55"/>
  </g>

  <!-- 泡泡：捧问号牌等着递 -->
  <g transform="translate(680,320)">
    <ellipse cx="0" cy="104" rx="40" ry="8" fill="#E4DACA" opacity="0.8"/>
    <ellipse rx="36" ry="32" fill="#FFFFFF" stroke="#E0D6C6" stroke-width="2.5"/>
    <ellipse cy="-2" rx="22" ry="16" fill="#CFE9F8"/>
    <path d="M -12 -5 q 4 -5 8 0" stroke="#2C6E9E" stroke-width="2.4" fill="none" stroke-linecap="round"/>
    <path d="M 4 -5 q 4 -5 8 0" stroke="#2C6E9E" stroke-width="2.4" fill="none" stroke-linecap="round"/>
    <path d="M -4 4 q 4 4 9 0" stroke="#2C6E9E" stroke-width="2.2" fill="none" stroke-linecap="round"/>
    <line y1="-32" y2="-45" stroke="#B9AFA0" stroke-width="3" stroke-linecap="round"/>
    <circle cy="-50" r="5" fill="#F59E0B"/>
    <g transform="translate(-52,-6)">
      <circle cx="12" cy="-8" r="7" fill="#FFFFFF" stroke="#E0D6C6" stroke-width="2.5"/>
      <g transform="translate(-16,-4)">
        <rect x="-22" y="-24" width="44" height="48" rx="10" fill="#8B6FC0"/>
        <text y="12" text-anchor="middle" font-size="30" font-weight="800" fill="#FFFFFF">?</text>
      </g>
    </g>
    <circle cx="40" cy="8" r="7" fill="#FFFFFF" stroke="#E0D6C6" stroke-width="2.5"/>
  </g>
</svg>
