<svg viewBox="0 0 900 460" xmlns="http://www.w3.org/2000/svg" font-family="'PingFang SC','Hiragino Sans GB','Microsoft YaHei','Noto Sans SC',sans-serif">
  <rect width="900" height="460" fill="#FAF6EF"/>
  <ellipse cx="450" cy="426" rx="380" ry="22" fill="#F1E7D6"/>

  <!-- 书桌 -->
  <rect x="180" y="300" width="540" height="18" rx="8" fill="#D9A05B"/>
  <rect x="210" y="318" width="16" height="98" rx="7" fill="#C98F4E"/>
  <rect x="674" y="318" width="16" height="98" rx="7" fill="#C98F4E"/>

  <!-- 作业本与铅笔 -->
  <g transform="translate(430,288) rotate(-3)">
    <rect x="-52" y="-16" width="104" height="34" rx="4" fill="#FFFFFF" stroke="#E0D6C6" stroke-width="2.5"/>
    <line x1="0" y1="-16" x2="0" y2="18" stroke="#F1E7D6" stroke-width="2.5"/>
    <path d="M -40 -6 h 30 M -40 4 h 24 M 12 -6 h 28 M 12 4 h 20" stroke="#DCD2C0" stroke-width="3" stroke-linecap="round"/>
  </g>

  <!-- 孩子：双丸子头，握笔写字 -->
  <g transform="translate(350,320)">
    <rect x="-26" y="-74" width="52" height="72" rx="20" fill="#7BA292"/>
    <path d="M 26 -50 L 54 -34" stroke="#7BA292" stroke-width="11" stroke-linecap="round"/>
    <circle cx="58" cy="-31" r="6" fill="#FFCFA8"/>
    <g transform="translate(66,-38) rotate(48)">
      <rect x="-3" y="-14" width="6" height="20" rx="2.5" fill="#F59E0B"/>
      <path d="M -3 6 L 0 13 L 3 6 Z" fill="#F2A65A"/>
    </g>
    <circle cy="-102" r="28" fill="#FFCFA8"/>
    <path d="M -28 -102 a 28 28 0 0 1 56 0 l 0 6 q -7 -7 -13 -3 q -7 -8 -15 -2 q -8 -7 -15 1 q -7 -4 -13 4 z" fill="#2E2A28"/>
    <circle cx="-20" cy="-126" r="9" fill="#2E2A28"/>
    <circle cx="20" cy="-126" r="9" fill="#2E2A28"/>
    <circle cx="-8" cy="-95" r="2.6" fill="#2E2A28"/>
    <circle cx="10" cy="-95" r="2.6" fill="#2E2A28"/>
    <path d="M -3 -86 q 6 5 12 0" stroke="#2E2A28" stroke-width="2.2" fill="none" stroke-linecap="round"/>
    <ellipse cx="-16" cy="-88" rx="4.2" ry="3" fill="#F7A98C" opacity="0.55"/>
    <ellipse cx="18" cy="-88" rx="4.2" ry="3" fill="#F7A98C" opacity="0.55"/>
  </g>

  <!-- 小悠：坐旁边指着本子 -->
  <g transform="translate(540,318)">
    <rect x="-28" y="-80" width="58" height="78" rx="22" fill="#F7C64B"/>
    <path d="M -28 -56 L -74 -34" stroke="#F7C64B" stroke-width="12" stroke-linecap="round"/>
    <circle cx="-79" cy="-31" r="6.5" fill="#FFCFA8"/>
    <path d="M 30 -56 L 58 -42" stroke="#F7C64B" stroke-width="12" stroke-linecap="round"/>
    <circle cx="62" cy="-39" r="6.5" fill="#FFCFA8"/>
    <circle cx="2" cy="-112" r="32" fill="#FFCFA8"/>
    <path d="M -30 -112 a 32 32 0 0 1 64 0 l 0 8 q -8 -8 -15 -4 q -8 -9 -17 -3 q -9 -8 -17 2 q -8 -5 -15 5 z" fill="#2E2A28"/>
    <path d="M -13 -104 q 5 -4 9 0" stroke="#2E2A28" stroke-width="2.5" fill="none" stroke-linecap="round"/>
    <path d="M 8 -104 q 5 -4 9 0" stroke="#2E2A28" stroke-width="2.5" fill="none" stroke-linecap="round"/>
    <path d="M -5 -94 q 8 7 16 0" stroke="#2E2A28" stroke-width="2.4" fill="none" stroke-linecap="round"/>
    <ellipse cx="-18" cy="-96" rx="4.6" ry="3.2" fill="#F7A98C" opacity="0.55"/>
    <ellipse cx="22" cy="-96" rx="4.6" ry="3.2" fill="#F7A98C" opacity="0.55"/>
  </g>

  <!-- 泡泡：桌角化身小台灯发光 -->
  <g transform="translate(700,254)">
    <path d="M -46 -20 L 0 46 L -78 46 Z" fill="#FFF3D6" opacity="0.7"/>
    <ellipse rx="32" ry="28" fill="#FFFFFF" stroke="#E0D6C6" stroke-width="2.5"/>
    <ellipse cy="-2" rx="19" ry="14" fill="#FDF3DC"/>
    <path d="M -10 -4 q 3.5 -4 7 0" stroke="#D9A05B" stroke-width="2.2" fill="none" stroke-linecap="round"/>
    <path d="M 3 -4 q 3.5 -4 7 0" stroke="#D9A05B" stroke-width="2.2" fill="none" stroke-linecap="round"/>
    <path d="M -4 4 q 4 3 8 0" stroke="#D9A05B" stroke-width="2" fill="none" stroke-linecap="round"/>
    <line y1="-28" y2="-40" stroke="#B9AFA0" stroke-width="3" stroke-linecap="round"/>
    <circle cy="-46" r="5" fill="#F59E0B"/>
    <path d="M -14 -52 l -5 -8 M 14 -52 l 5 -8 M 0 -56 v -9" stroke="#F2C48A" stroke-width="2.5" stroke-linecap="round"/>
    <rect x="-6" y="28" width="12" height="26" rx="5" fill="#B9AFA0"/>
  </g>
</svg>
