<svg viewBox="0 0 900 460" xmlns="http://www.w3.org/2000/svg" font-family="'PingFang SC','Hiragino Sans GB','Microsoft YaHei','Noto Sans SC',sans-serif">
  <rect width="900" height="460" fill="#FAF6EF"/>
  <ellipse cx="450" cy="424" rx="380" ry="22" fill="#F1E7D6"/>

  <!-- 办公桌 -->
  <rect x="200" y="300" width="500" height="18" rx="8" fill="#D9A05B"/>
  <rect x="230" y="318" width="16" height="98" rx="7" fill="#C98F4E"/>
  <rect x="654" y="318" width="16" height="98" rx="7" fill="#C98F4E"/>

  <!-- 显示器 -->
  <g transform="translate(400,240)">
    <rect x="-70" y="-52" width="140" height="96" rx="8" fill="#3D3229"/>
    <rect x="-62" y="-44" width="124" height="80" rx="5" fill="#DFF0FB"/>
    <path d="M -48 -26 h 60 M -48 -10 h 92 M -48 6 h 74 M -48 22 h 84" stroke="#A9CBE8" stroke-width="5" stroke-linecap="round"/>
    <rect x="-10" y="44" width="20" height="14" fill="#8A7F72"/>
    <rect x="-30" y="56" width="60" height="6" rx="3" fill="#8A7F72"/>
  </g>

  <!-- 两摞文件 -->
  <g transform="translate(560,282)">
    <rect x="-30" y="-8" width="60" height="9" rx="3" fill="#FFFFFF" stroke="#E0D6C6" stroke-width="2"/>
    <rect x="-27" y="-17" width="60" height="9" rx="3" fill="#FFFFFF" stroke="#E0D6C6" stroke-width="2"/>
    <rect x="-32" y="-26" width="60" height="9" rx="3" fill="#FFFFFF" stroke="#E0D6C6" stroke-width="2"/>
  </g>
  <g transform="translate(648,284)">
    <rect x="-26" y="-8" width="52" height="9" rx="3" fill="#FDF3DC" stroke="#E9CD90" stroke-width="2"/>
    <rect x="-23" y="-17" width="52" height="9" rx="3" fill="#FDF3DC" stroke="#E9CD90" stroke-width="2"/>
  </g>

  <!-- 小悠：坐姿办公 -->
  <g transform="translate(320,320)">
    <rect x="-50" y="-84" width="16" height="128" rx="8" fill="#C98F4E"/>
    <rect x="-52" y="44" width="86" height="12" rx="6" fill="#C98F4E"/>
    <rect x="-28" y="-82" width="58" height="80" rx="22" fill="#F7C64B"/>
    <path d="M 30 -56 L 62 -40" stroke="#F7C64B" stroke-width="12" stroke-linecap="round"/>
    <circle cx="66" cy="-37" r="6.5" fill="#FFCFA8"/>
    <rect x="0" y="-4" width="18" height="38" rx="8" fill="#4C6FB0"/>
    <rect x="24" y="-4" width="18" height="38" rx="8" fill="#4C6FB0"/>
    <ellipse cx="12" cy="36" rx="13" ry="6" fill="#3D3229"/>
    <ellipse cx="38" cy="36" rx="13" ry="6" fill="#3D3229"/>
    <circle cx="2" cy="-114" r="32" fill="#FFCFA8"/>
    <path d="M -30 -114 a 32 32 0 0 1 64 0 l 0 8 q -8 -8 -15 -4 q -8 -9 -17 -3 q -9 -8 -17 2 q -8 -5 -15 5 z" fill="#2E2A28"/>
    <circle cx="-9" cy="-106" r="3" fill="#2E2A28"/>
    <circle cx="13" cy="-106" r="3" fill="#2E2A28"/>
    <path d="M -4 -96 q 7 6 14 0" stroke="#2E2A28" stroke-width="2.4" fill="none" stroke-linecap="round"/>
    <ellipse cx="-18" cy="-98" rx="4.6" ry="3.2" fill="#F7A98C" opacity="0.55"/>
    <ellipse cx="22" cy="-98" rx="4.6" ry="3.2" fill="#F7A98C" opacity="0.55"/>
  </g>

  <!-- 泡泡：递文件 -->
  <g transform="translate(720,210)">
    <ellipse rx="36" ry="32" fill="#FFFFFF" stroke="#E0D6C6" stroke-width="2.5"/>
    <ellipse cy="-2" rx="22" ry="16" fill="#CFE9F8"/>
    <path d="M -12 -5 q 4 -5 8 0" stroke="#2C6E9E" stroke-width="2.4" fill="none" stroke-linecap="round"/>
    <path d="M 4 -5 q 4 -5 8 0" stroke="#2C6E9E" stroke-width="2.4" fill="none" stroke-linecap="round"/>
    <path d="M -4 4 q 4 4 9 0" stroke="#2C6E9E" stroke-width="2.2" fill="none" stroke-linecap="round"/>
    <line y1="-32" y2="-45" stroke="#B9AFA0" stroke-width="3" stroke-linecap="round"/>
    <circle cy="-50" r="5" fill="#F59E0B"/>
    <circle cx="40" cy="8" r="7" fill="#FFFFFF" stroke="#E0D6C6" stroke-width="2.5"/>
    <g transform="translate(-52,10)">
      <circle cx="10" cy="-10" r="7" fill="#FFFFFF" stroke="#E0D6C6" stroke-width="2.5"/>
      <g transform="translate(-16,10) rotate(-8)">
        <rect x="-26" y="-18" width="52" height="36" rx="4" fill="#FFFFFF" stroke="#E0D6C6" stroke-width="2.5"/>
        <path d="M -16 -6 h 32 M -16 6 h 24" stroke="#DCD2C0" stroke-width="3" stroke-linecap="round"/>
        <circle cx="16" cy="8" r="6" fill="#5FA968"/>
      </g>
    </g>
  </g>
</svg>
