<svg viewBox="0 0 900 470" xmlns="http://www.w3.org/2000/svg" font-family="'PingFang SC','Hiragino Sans GB','Microsoft YaHei','Noto Sans SC',sans-serif">
  <rect width="900" height="470" fill="#FAF6EF"/>
  <ellipse cx="450" cy="434" rx="380" ry="22" fill="#F1E7D6"/>

  <!-- 沙发 -->
  <g transform="translate(430,340)">
    <rect x="-230" y="-66" width="460" height="116" rx="26" fill="#8BB0A0"/>
    <rect x="-272" y="-88" width="72" height="148" rx="24" fill="#7BA292"/>
    <rect x="200" y="-88" width="72" height="148" rx="24" fill="#7BA292"/>
    <rect x="-220" y="-118" width="440" height="70" rx="22" fill="#7BA292"/>
    <rect x="-248" y="50" width="20" height="28" rx="8" fill="#C98F4E"/>
    <rect x="228" y="50" width="20" height="28" rx="8" fill="#C98F4E"/>
  </g>

  <!-- 奶奶：老花镜盘发，捧手机 -->
  <g transform="translate(360,346)">
    <rect x="-34" y="-100" width="68" height="92" rx="26" fill="#8B6FC0"/>
    <rect x="-26" y="-10" width="22" height="42" rx="10" fill="#6E655A"/>
    <rect x="6" y="-10" width="22" height="42" rx="10" fill="#6E655A"/>
    <ellipse cx="-15" cy="34" rx="14" ry="6" fill="#3D3229"/>
    <ellipse cx="17" cy="34" rx="14" ry="6" fill="#3D3229"/>
    <path d="M 34 -80 L 62 -56" stroke="#8B6FC0" stroke-width="13" stroke-linecap="round"/>
    <circle cx="66" cy="-52" r="7" fill="#FFCFA8"/>
    <path d="M -34 -80 L -58 -54" stroke="#8B6FC0" stroke-width="13" stroke-linecap="round"/>
    <circle cx="-62" cy="-50" r="7" fill="#FFCFA8"/>
    <g transform="translate(4,-44) rotate(6)">
      <rect x="-24" y="-38" width="48" height="76" rx="9" fill="#3D3229"/>
      <rect x="-19" y="-32" width="38" height="64" rx="5" fill="#DFF0FB"/>
      <circle cy="18" r="8" fill="#8B6FC0"/>
      <rect x="-3" y="14" width="6" height="8" rx="3" fill="#FFFFFF"/>
    </g>
    <circle cy="-134" r="33" fill="#FFCFA8"/>
    <path d="M -33 -134 a 33 33 0 0 1 66 0 l 0 4 q -10 -8 -20 -5 q -12 -7 -24 -1 q -12 -5 -22 2 z" fill="#B9AFA0"/>
    <circle cx="0" cy="-168" r="13" fill="#B9AFA0"/>
    <circle cx="-12" cy="-126" r="8.5" fill="none" stroke="#6E655A" stroke-width="2.5"/>
    <circle cx="13" cy="-126" r="8.5" fill="none" stroke="#6E655A" stroke-width="2.5"/>
    <line x1="-3.5" y1="-126" x2="4.5" y2="-126" stroke="#6E655A" stroke-width="2.5"/>
    <circle cx="-12" cy="-126" r="2.6" fill="#2E2A28"/>
    <circle cx="13" cy="-126" r="2.6" fill="#2E2A28"/>
    <path d="M -6 -112 q 7 6 14 0" stroke="#2E2A28" stroke-width="2.4" fill="none" stroke-linecap="round"/>
    <ellipse cx="-22" cy="-114" rx="4.6" ry="3.2" fill="#F7A98C" opacity="0.5"/>
    <ellipse cx="24" cy="-114" rx="4.6" ry="3.2" fill="#F7A98C" opacity="0.5"/>
  </g>

  <!-- 小悠：凑近指屏幕 -->
  <g transform="translate(540,352)">
    <rect x="-28" y="-92" width="58" height="86" rx="22" fill="#F7C64B"/>
    <path d="M -28 -66 L -84 -76" stroke="#F7C64B" stroke-width="12" stroke-linecap="round"/>
    <circle cx="-90" cy="-78" r="6.5" fill="#FFCFA8"/>
    <path d="M 30 -66 L 54 -48" stroke="#F7C64B" stroke-width="12" stroke-linecap="round"/>
    <circle cx="58" cy="-45" r="6.5" fill="#FFCFA8"/>
    <circle cx="2" cy="-124" r="32" fill="#FFCFA8"/>
    <path d="M -30 -124 a 32 32 0 0 1 64 0 l 0 8 q -8 -8 -15 -4 q -8 -9 -17 -3 q -9 -8 -17 2 q -8 -5 -15 5 z" fill="#2E2A28"/>
    <path d="M -13 -116 q 5 -4 9 0" stroke="#2E2A28" stroke-width="2.5" fill="none" stroke-linecap="round"/>
    <path d="M 8 -116 q 5 -4 9 0" stroke="#2E2A28" stroke-width="2.5" fill="none" stroke-linecap="round"/>
    <path d="M -5 -106 q 8 7 16 0" stroke="#2E2A28" stroke-width="2.4" fill="none" stroke-linecap="round"/>
    <ellipse cx="-18" cy="-108" rx="4.6" ry="3.2" fill="#F7A98C" opacity="0.55"/>
    <ellipse cx="22" cy="-108" rx="4.6" ry="3.2" fill="#F7A98C" opacity="0.55"/>
  </g>

  <!-- 泡泡：从屏幕上方探头 -->
  <g transform="translate(300,190)">
    <ellipse rx="30" ry="27" fill="#FFFFFF" stroke="#E0D6C6" stroke-width="2.5"/>
    <ellipse cy="-2" rx="18" ry="13" fill="#CFE9F8"/>
    <path d="M -10 -4 q 3.5 -4 7 0" stroke="#2C6E9E" stroke-width="2.2" fill="none" stroke-linecap="round"/>
    <path d="M 3 -4 q 3.5 -4 7 0" stroke="#2C6E9E" stroke-width="2.2" fill="none" stroke-linecap="round"/>
    <path d="M -4 4 q 4 3 8 0" stroke="#2C6E9E" stroke-width="2" fill="none" stroke-linecap="round"/>
    <line y1="-27" y2="-38" stroke="#B9AFA0" stroke-width="3" stroke-linecap="round"/>
    <circle cy="-43" r="4.5" fill="#F59E0B"/>
    <circle cx="-36" cy="4" r="7" fill="#FFFFFF" stroke="#E0D6C6" stroke-width="2.5"/>
    <circle cx="36" cy="4" r="7" fill="#FFFFFF" stroke="#E0D6C6" stroke-width="2.5"/>
  </g>

  <!-- 茶几与热茶 -->
  <g transform="translate(760,392)">
    <rect x="-64" y="-6" width="128" height="12" rx="6" fill="#D9A05B"/>
    <rect x="-50" y="6" width="12" height="42" rx="5" fill="#C98F4E"/>
    <rect x="38" y="6" width="12" height="42" rx="5" fill="#C98F4E"/>
    <g transform="translate(0,-22)">
      <path d="M -13 -8 h 26 v 10 a 13 11 0 0 1 -26 0 z" fill="#E8734A"/>
      <path d="M 13 -5 q 9 1 8 9 q -1 6 -9 5" stroke="#E8734A" stroke-width="3.4" fill="none"/>
      <path d="M -5 -14 q 2 -5 0 -9 M 4 -14 q 2 -5 0 -9" stroke="#C9BCA6" stroke-width="2.2" fill="none" stroke-linecap="round"/>
    </g>
  </g>
</svg>
