<svg viewBox="0 0 900 540" xmlns="http://www.w3.org/2000/svg" font-family="'PingFang SC','Hiragino Sans GB','Microsoft YaHei','Noto Sans SC',sans-serif">
  <rect width="900" height="540" fill="#FAF6EF"/>
  <text x="450" y="46" text-anchor="middle" font-size="24" font-weight="700" fill="#3D3229">三条家规，贴冰箱上</text>
  <text x="450" y="72" text-anchor="middle" font-size="13.5" fill="#9A8F80">示意图 2-1 ｜ 家教鼓励，枪手禁止</text>

  <!-- 冰箱局部 -->
  <rect x="150" y="92" width="600" height="400" rx="20" fill="#DCE8EA" stroke="#B9CBCE" stroke-width="3"/>
  <rect x="170" y="240" width="12" height="120" rx="6" fill="#B9CBCE"/>

  <!-- 便签 -->
  <g transform="translate(470,292) rotate(-1.5)">
    <rect x="-240" y="-168" width="480" height="336" rx="8" fill="#FFFDF4" stroke="#E9DFC8" stroke-width="2.5"/>
    <circle cx="-180" cy="-150" r="11" fill="#E8734A"/>
    <circle cx="182" cy="-148" r="11" fill="#4A90D9"/>
    <text y="-118" text-anchor="middle" font-size="19" font-weight="800" fill="#3D3229">我家的 AI 使用家规</text>
    <line x1="-190" y1="-96" x2="190" y2="-96" stroke="#EADFC6" stroke-width="2.5"/>

    <circle cx="-186" cy="-52" r="17" fill="#F59E0B"/>
    <text x="-186" y="-45" text-anchor="middle" font-size="15" font-weight="800" fill="#FFFFFF">1</text>
    <text x="-152" y="-56" font-size="16.5" font-weight="700" fill="#B45309">先自己想，再问 AI</text>
    <text x="-152" y="-32" font-size="12" fill="#8A7F72">先动笔，卡住的题标出来，再去问思路</text>

    <circle cx="-186" cy="28" r="17" fill="#4A90D9"/>
    <text x="-186" y="35" text-anchor="middle" font-size="15" font-weight="800" fill="#FFFFFF">2</text>
    <text x="-152" y="24" font-size="16.5" font-weight="700" fill="#2C6E9E">AI 说的，要能复述</text>
    <text x="-152" y="48" font-size="12" fill="#8A7F72">问完讲给爸妈听——讲得出才算学会</text>

    <circle cx="-186" cy="108" r="17" fill="#5FA968"/>
    <text x="-186" y="115" text-anchor="middle" font-size="15" font-weight="800" fill="#FFFFFF">3</text>
    <text x="-152" y="104" font-size="16.5" font-weight="700" fill="#3E7D4B">一起用，不背着用</text>
    <text x="-152" y="128" font-size="12" fill="#8A7F72">在客厅、在大人身边用——是陪伴，不是监视</text>
  </g>

  <text x="450" y="518" text-anchor="middle" font-size="13.5" fill="#9A8F80">试金石：合上设备，能把这道题讲给别人听，才叫学会</text>
</svg>
